<svg width="586" height="585" fill="none" xmlns="http://www.w3.org/2000/svg"><path clip-rule="evenodd" d="M154.969 41.288c1.583-.288 1.583-.288 2.567-.17-14.142 8.361-14.142 8.361-17.172 13.051.235.175.566.414.799.592-.003 1.038-.003 1.038-5.313 9.612 3.069.126 3.069.126 3.249.194-.037.042-3.525 4.611-2.923 6.344 2.534-2.246 3.912-5.708 7.343-7.004 3.024 3.177-3.447 5.242-3.917 8.448 5.381 4.823 8.567-5.582 12.995-8.136 2.419-10.442 9.615-3.075 9.691-3.002-.397.78-.491 1.69-1.047 2.402-1.012 1.068-2.81.927-3.574 2.366-.83 1.56.686 3.227-.227 4.782-.332.552-.908 1.209-1.396 1.635-2.247 1.979-2.247 1.979-10.79 5.072-2.565-1.628-4.999 1.327-5.025 1.358a3.177 3.177 0 011.445.508c-3.721 5.747-10.043 2.654-14.946 4.426 4.144 2.365 5.206 2.177 10.302 1.285-7.494 8.013-7.494 8.013-20.666 10.366 1.294 1.02 3.561.105 4.339 2.18-6.771 5.04-22.628 16.849-21.493 23.368 5.031.4 5.031.4 5.391 2.538 1.02 6.13 1.02 6.13 1.826 6.792 2.325-.665 4.235-2.638 6.91-2.186.524.087 1.208.265 1.714.44 2.933 1.034 4.491 4.146 7.552 4.975 3.003.817 6.382-1.635 9.179 1.071.514-.014 1.206.031 1.715.107.07.251 0 .767.07 1.015-.449.356-1.216 1.008-1.673 1.364.88 2.167 1.563 3.881-.034 8.576 2.944 2.109 6.719 3.046 8.846 6.312 6.792-4.723 2.87-12.187 4.444-18.165 1.197-.916 1.341-1.054 1.628-1.423-.629-2.181 2.32-3.117 3.614-3.418 5.92-1.374 5.733-11.678 5.722-11.782-.086-2.568-2.776-4.125-2.617-6.787.138-2.295 2.677-2.952 3.316-4.901-3.316-4.18 1.579-7.778.828-11.775 4.198-1.753 8.803-.798 13.096-1.955.79-.076 1.03-.096 2.077.252 4.699 1.554 5.166 2.358 5.37 2.7.595 1.01.866 1.317 1.31 1.48 1.904.698 3.916-.228 5.818.407-1.972 1.6-3.261 8.294-2.687 9.312 3.246.722 5.855 3.766 9.594 2.622.6-.183.6-.183 2.743-3.122.942-1.28 2.726-.23 3.713-1.371.863-.992-.462-2.036.062-3.036 3.364-6.443 3.364-6.443 10.239 5.873 2.732 4.883 2.732 4.883 1.485 6.626-.851 1.178-1.151 1.717-.707 2.327 1.067 1.439 3.175 1.078 4.253 2.504.793 1.06-.102 2.277.295 3.376.673.225.673.225 1.949-.107 5.67-1.492 10.176 2.4 9.918 3.086-.177.28-.613.478-.911.628l-.073.028c-5.777 2.246-6.518 2.534-8.078 4.764.17.387.402.908.577 1.292 5.111-3.347 7.989-3.632 8.95-3.726 0 0 .023-.006 1.356.007 1.569.32 3.129.663 4.695 1 .26.403.602.945.866 1.351-1.407 3.486-1.407 3.486-.444 5.846-2.982 5.428-22.497 15.135-26.839 12.154-19.09 5.805-19.09 5.805-37.679 25.195 27.004-16.943 27.004-16.943 28.948-15.02-.806 3.816-3.541 4.559-7.335 5.595 1.08 1.327 1.245 1.534 3.779 2.463 1.051 3.271 1.513 4.645 4.208 5.92-.803-1.623.071-3.821.212-4.049l.078-.049c.05.034.115.073.086.523-.099 1.152.11 1.96 1.49 2.656.561.283 2.145.888 4.924.453.412-.068.459-.068.592-.034.011.013.018.031.034.045a.503.503 0 01-.026.086c-.008.018-1.195 1.693-2.748 2.02 1.558.466 3.442.992 5.749 1.641 1.774-2.695 1.902-6.365 4.874-8.361 3.856 9.759-17.746 22.352-24.765 22.232.136-2.154.136-2.154 10.497-9.534v-1.557c-.989.026-2.299-.304-3.22-.652.183-.382.418-.885.598-1.262-17.903 10.403-17.903 10.403-18.941 10.351-6.166 5.784-6.166 5.784-7.332 16.817-.927-.068-13.475 6.766-13.545 6.844-2.949 2.874-2.31 7.194-4.22 10.487-.357-1.738-1.696-2.921-2.473-4.421-.903 14.067-.903 14.067-1.908 14.719.008-.018.011-9.641-.159-12.798l-2.15 21.371c.402.147.934.354 1.339.5-.05.505-.123 1.178-.17 1.683-.41.118-.952.28-1.357.401-.047.418-.115.981-.167 1.402.287.327.668.757.953 1.084.01-.008.015-.008.161.01-6.492 7.446-18.103 10.152-20.05 21.811-1.873 11.277 15.103 21.206 4.533 32.394-8.963-5.21-3.267-18.366-12.609-23.365-.091-.055-21.884 1.845-24.629 3.439-.102.455-.227 1.054-.324 1.51 1.19.945 2.74 1.342 3.787 2.499-.368.304-.856.715-1.224 1.018-.107-.052-13.827-3.156-17.36-.421-1.983 1.533-10.427 10.165-11.844 14.755-1.088 3.546 3.074 5.053 3.137 8.157.112 4.852-4.196 8.867-2.672 14.002 1.234 4.15 4.921 12.044 15.734 18.256 4.616 2.654 7.204-3.012 11.23-2.753 2.498-26.474 14.182-17.019 15.51-15.854-1.119 6.459-1.119 6.459-4.156 13.577 1.688 3.581 1.688 3.581-.621 11.272 7.011.474 14.074-3.195 21.031.338.052.021 3.875 6.634 2.588 15.603-2.111 14.828 20.77 4.784 29.676 11.13 2.677-23.86 26.388-20.282 56.398-15.749.991.141 2.283.549 3.186.984 6.2 2.996 10.087 8.966 15.872 12.491 7.306 4.444 16.392 3.007 23.771 7.226 5.639 3.227 9.673 8.95 15.074 12.478 3.163 3.426 3.622 9.38 8.76 11.274 8.843 2.217 17.853 3.769 26.578 6.467 5.856 1.809 9.863 7.137 15.98 8.474 1.889.409 3.76-1.007 5.657-.042 2.669 1.364-.152 4.256.245 6.368.266 1.41 1.412 2.442 1.665 3.852.026.139.016.34.008.482-.019.115-4.183 12.857-15.915 17.144.094.39.353.89.59 1.217 1.289 1.775.613 2.779-1.221 5.475-1.581 2.332-.175 4.789-.29 7.181-.208 4.274.183 8.561-.391 12.824-.261 1.942-.428 1.921-2.479 1.657-1.182-.157-2.607-.121-4.188 1.316-3.512 3.209-3.585 9.066-8.559 11.136-2.176.91-7.46 3.48-9.474 7.825-.044.34-6.012 34.349-20.024 34.734l1.814 2.551c1.589 2.335-.467 7.446-6.631 5.554l-.871.544c.253 2.478.253 2.479-3.225 5.585 4.516 6.289 4.516 6.289 4.55 6.681-3.744-.12-3.744-.12-4.55.139 5.208 14.386 5.208 14.386 7.963 17.338-1.871 8.425-1.871 8.425 17.981 18.681-.19.063-20.804 3.384-42.114-26.692-16.796-23.716-26.451-67.143-26.534-67.557-1.777-9.141-5.477-16.134-10.417-19.691-6.487-4.674-14.823-5.883-20.971-11.209-.201-.178-25.396-25.16-31.531-34.294-.363-.539-.764-1.309-1.075-1.877-1.944-3.467 2.583-22.041 2.641-22.213 4.678-10.304 4.678-10.304 4.112-12.777-1.832-7.828-6.962-24.538-15.291-10.604-18.708.667-25.782-20.55-42.86-22.942a70.998 70.998 0 00-1.91-.233c-3.823-.408-3.823-.408-14.694-6.623-4.748-2.714-9.894.081-14.74-1.097-4.733-1.149-9.56-1.903-14.27-3.114-1.352-.348-2.99-1.28-4.287-1.777-.707-.28-1.696-.628-2.314-1.071-4.585-3.229-3.52-8.934-5.746-13.198-2.758-5.297-8.366-7.992-11.661-12.805-2.54-3.714-5.464-7.145-7.852-10.965-1.122-1.788-1.745-4.643-2.301-7.169-.78-3.541-1.399-6.341-7.249-10.63 4.577 18.62 7.315 22.767 9.72 26.194l.146.209c5.067 7.22 4.368 9.057 3.378 10.551l-.176.261c-.102-.123-11.768-15.247-13.368-18.603a90.84 90.84 0 013.131-.102C5.147 276.849 5.147 276.849 4.361 276.72c-6.074-10.677-2.89-67.861 6.234-79.261.757.375 1.759.906 2.497 1.325.113-2-.459-3.878-1.113-5.741l-.265-.744c0 .039-.015.075-.01.109.018.359.104.71.083 1.066-.005.248-.039.824-.245 1.34-.242.573-.618.973-1.018 1.099-.02 0-1.552.301-2.183-1.861-.77-2.628-.09-5.826-.081-5.849a.062.062 0 00.02-.013c.28.065.622 1.183.71 1.523.183.662.222.701.321.803.112.121.274.173.59.197.663.044 1.096.151 1.36.246-.68-2.021-1.198-4.067-.747-6.294 1.86-9.32 1.86-9.32 3.58-14.771-.253-.411-.582-.953-.83-1.366.363-1.079.83-2.526 1.177-3.609.66-3.732.66-3.732 6.077-17.42-.11.171-.248.388-.365.566 7.987-13.311 8.412-13.873 26.638-37.673 4.24-4.771 9.887-11.13 14.125-15.902-.3.372-.666.903-.898 1.325 6.847-6.852 12.319-10.974 12.345-10.987-2.458 2.282-5.078 4.392-7.5 6.71l.024-.013c7.664-6.53 7.664-6.53 11.854-10.397-2.437 3.017-2.437 3.017-3.235 4.692 1.542-1.494 1.542-1.494 2.489-2.183a11.962 11.962 0 00-.976 1.52c1.378-.936 2.37-2.44 4.128-2.81.363.325.79.817 1.07 1.215 2.463.266 2.596.193 3.452-.275.198.107.46.251.657.363-.597 2.56-3.157 3.133-4.74 4.7 3.79.569 6.635-2.284 10.108-2.844.214 1.816-1.435 3.379-.728 5.263 3.82-7.472 5.735-11.217 12.167-12.879.548.743.454 1.743.971 2.5 7.958.374 10.111-.998 10.466-1.278 6.447-5.095 6.447-5.095 8.43-4.582-3.457 3.703-3.457 3.703-1.607 5.63 1.97-4.591 7.238-6.004 9.652-10.163-.217-.052-.509-.115-.723-.162h-.015l.026-.607c1.153-1.105 1.547-1.33 4.06-2.58a33.306 33.306 0 01-.183-.741c-1.203.076-2.39.337-3.598.34l-.384-.793c.118-.207 15.424-21.51 26.741-24.166zm281.433 5.26c2.573.922 3.88 3.658 6.474 4.559-1.238-1.453-1.238-1.453-1.584-2.304.553.162 8.009 3.576 8.705 5.205a13.827 13.827 0 01-1.212-.42c4.068 2.765 5.108 3.16 5.655 3.37.136-.105.306-.243.44-.35 1.704 1.018 2.076 1.322 2.743 1.86a10.441 10.441 0 00-1.133-.442c.644.595 1.304 1.21 7.411 4.899 8.501 5.136 21.413 16.3 22.5 18.28-4.621-2.126-7.97-6.04-12.216-8.682 8.498 6.762 15.658 15.007 24.073 21.869.13-.092.316-.218.455-.312-1.979-1.997-4.519-3.44-5.93-6.006.846.603 1.618 1.31 2.529 1.825-5.013-5.194-5.212-5.459-5.731-6.16.472.392.917.806 1.375 1.222l.031.04 12.056 12.2c11.287 12.148 11.635 12.624 29.846 37.481 4.249 6.351 9.367 15.177 13.357 21.701l10.37 20.298c4.631 10.028 6.21 13.463 9.623 23.534-.041-.047-.081-.089-.128-.144.157 1.556.157 1.556 9.854 33.737a5.783 5.783 0 01-.159-.303c3.966 23.646 4.141 24.717 6.16 31.401.324 2.171.667 4.488 1.042 7.017.866 8.414 1.275 19.696 1.746 28.136.055 8.297-.516 19.126-.908 27.786.023-.481.028-.979.047-1.505-.684 9.998-1.142 13.677-1.506 16.62l-.882 6.424-.16 1.027a101.3 101.3 0 01-.544 3.058l.001-.01.047-.304c.05-.329.106-.693.158-1.02l.039-.247-.012.066c-.371 2.092-.53 2.447-8.193 18.987l-.24.517c-1.356-.301-1.356-.301-4.409 1.131-.892-27.844 7.114-55.729-.442-83.541-.23.992-.88 2.311-1.668 2.955-.777-5.327-.777-5.327-1.513-6.474l3.097 36.852c1.045 11.706-1.23 23.314-1 34.999.084 4.498 1.105 8.954.584 13.478-1.37 11.943-1.4 12.205-.771 13.083l.043.06c2.987-.634 2.987-.634 4.699-.073-2.235 7.639-11.231 27.142-17.928 34.577-4.262 4.519-18.635 20.23-22.837 30.49-1.044 2.571-11.126 23.191-21.98 33.572-4.54 4.346-10.687 6.401-15.292 10.661-4.019 3.715-6.26 8.834-10.022 12.758l-16.656 13.287-13.173 9.276c-3.286 2.238-13.29 9.053-21.793 6.417 1.877-4.273 2.872-5.296 4.676-7.153 2.668-2.743 3.147-3.238 19.742-32.784 4.27-7.589 4.797-16.635 9.412-24.091 4.959-8.009 12.15-14.502 15.91-23.333 8.165-19.191 6.176-27.935 4.717-34.313-.929-4.042-.929-4.042 5.098-18.206 2.17-5.092 2.17-5.092.426-10.376-2.636-.824-5.696.186-8.045-1.858-2.398-2.077-.644-5.784-3.094-7.836-.335-.281-.856-.655-1.296-.699-13.593-1.461-26.413 3.537-39.689 4.788-2.676.254-16.787-13.227-18.664-17.151-4.472-9.349-9.71-18.337-13.472-28.019-2.521-6.464 5.445-9.111 5.346-14.698-.11-6.647-4.621-12.378-4.014-19.183 0-.018 14.674-25.482 16.669-28.686.676-1.097 6.208-5.386 9.425-6.941 3.579-1.728 3.579-1.728 4.273-15.028.065-1.223-.262-3.037.429-4.053 2.314-3.424 7.016-3.367 9.527-6.519 2.013-2.534.453-6.103 2.511-8.621.348-.43.953-.872 1.382-1.241 0 0 .023 0 .628.421 3.364 4.03 4.417 3.815 7.517 3.192.217 0 .426.01 1.633.112 10.936 3.789 19.845-8.27 30.851-3.979.508-.851 1.369-1.862 2.076-2.545 8.487 1.951 8.487 1.951 10.524.395 1.519.82 2.032 1.095 4.548 2.752.963 12.486.963 12.486-.299 14.491-.534.846-1.22 2.398-.709 3.257 1.66 2.752 24.837 23.835 27.02 25.438.435-.176 1.003-.409 1.44-.584 1.354-3.6-.199-7.661 1.767-11.169 10.551.173 9.624 14.863 19.73 15.601.586-.605 1.751-1.063 2.581-1.089.974 2.979 1.471 3.639 4.511 3.885 2.314-5.704 2.136-8.956.997-30.095-.837-.33-1.861-1.036-2.484-1.681-.089.925-.369 2.15-.689 3.017-2.599-1.577-3.34-4.713-5.579-6.588.016.451.04 1.05.055 1.503-.319.322-.743.754-1.063 1.076-6.882-5.791-8.246-16.18-8.977-21.764a83.558 83.558 0 01-1.403-.409 20.157 20.157 0 01.194-3.364c1.822-.911 4.102-.036 5.791-1.476-.621-.589-1.218-1.645-1.409-2.48.896.204 2.076.54 2.951.835.599-.636 1.055-1.816 1.115-2.686 7.362-1.929 7.124 8.127 11.661 11.172.398-.218.934-.516 1.317-.733.348-11.146-8.226-18.421-12.025-27.768.262-.377.61-.887.869-1.262-1.204-4.699-1.204-4.699-2.026-6.008.23-.427.539-.99.772-1.412-.678-1.806-1.078-2.578-3.424-2.081-1.555 4.44 6.299 9.815 1.031 12.855-1.23-1.725-1.893-3.809-3.319-5.42.515-2.982.515-2.982.049-4.901-1.607-.963-2.159-1.377-3.542-2.987.189-.4.443-.945.631-1.346-.764-.353-2.021-.424-2.817-.144-1.353 10.897 6.438 20.33 4.98 31.245-.466.031-1.103.065-1.582.097a20 20 0 01-1.28 2.846c-.942-3.485-5.44-6.166-7.587-6.624-1.178.89-1.178.89 1.231 12.878.743 3.692 2.209 7.239 2.22 11.075 0 .937-.084 2.196-.21 3.128l-7.045-16.14c-6.61-19.034-6.61-19.034-6.694-19.165l-22.232-26.12c-.82.311-1.775 1.125-2.246 1.866 9.801 20.044 12.718 21.338 16.394 22.974a73.597 73.597 0 01-.359 1.505c7.83 9.407 7.83 9.407 8.317 11.79-.607-.799-1.392-1.875-1.984-2.686-.445.115-1.034.272-1.471.385-.048 1.832-.048 1.832 1.405 6.901-1.133 1.861-1.623 4.034-2.851 5.854-.429-.058-1.008-.139-1.447-.191-.498 2.634 1.154 5.181.316 7.833-.041-.026-5.956-5.152-7.869-8.393 9.765-1.341 10.558-1.456 8.838-7.075-2.28-7.445-25.405-34.009-25.617-34.184-4.21-3.634-6.448-.532-9.14 4.249-2.955-.013-5.416-4.218-8.576-1.589-.741.607-.741.607-.841 9.404-6.822 2.684-6.953 2.736-9.592 13.635 2.474 3.904 1.319 9.698-3.254 10.271l-16.575 5.501c-.065-.1-.065-.1-1.236-4.881-3.031-.691-4.505-.573-11.579-.023.178-.767.178-.767 1.118-9.14-3.415-1.006-4.572-27.078-4.602-28.372l-.001-.047c-.675-.739-1.458-1.841-1.958-2.713 10.127 1.029 19.934 4.071 30.113 4.799.123-.196 3.552-22.149-18.298-28.218.375-.269.883-.625 1.257-.895-.922-.812-2.136-1.885-3.047-2.686.188-.427.452-.995.646-1.422 3.644.097 3.644.097 5.906 1.545.987-.241 2.27-.71 3.207-1.108.144-.46.343-1.073.485-1.526a30.503 30.503 0 01-1.856-2.867c2.031 1.487 2.78 2.045 7.443 2.275.419-.908.683-2.251.712-3.249 1.091-.351 2.471-1.029 3.408-1.673-1.735-4.265-1.735-4.265-1.756-4.49 2.285-.845 2.285-.845 6.327-.751.236-.414.548-.961.781-1.377-1.626-4.506-2.084-6.967-2.333-8.294 1.322-1.302 1.322-1.302 6.165-1.16.27-.377.629-.875.898-1.252.919-.146 2.147-.348 3.061-.508 1.301-.248 1.345-.298 1.568-.539-.047-.128-.128-.403-1.882-2.422-4.32-4.987-10.404-15.617-10.753-16.609-.816-2.317 3.927-2.288 4.132-2.286 1.654.184 3.885 6.417 3.832 7.894-.154 3.576 2.789 7.744 5.291 10.609 3.401 3.901 3.681 3.887 4.894 3.827 3.563-.178 5.552 1.315 6.293 1.875l-4.409-.773c2.516.516 4.93 1.194 6.818 2.291.387-.235.893-.544 1.267-.775.06-.885.06-.885 9.207-.243l.066.008c-.1-.134-.236-.314-.335-.443.256-.62.353-1.298.626-1.908.387-.102.387-.102 2.366.078.191-1.508-2.453-4.909-2.987-5.576-.403-.503-4.307-7.679-4.346-7.737.113-.162.246-.382.346-.544 3.492-.275 3.715 4.437 6.951 4.558-2.561-5.111-7.258-8.488-10.546-13.01 3.014.39 5.776 1.647 8.668 2.482-.358-.563-.764-1.089-1.07-1.686.151-.091.345-.209.484-.301.796.304 1.513.778 2.38.898-4.99-4.566-12.522-3.867-17.478-8.483-5.673-5.285-5.673-5.285-11.676-18.682.185-.021.439-.045.631-.06-.569-1.603-8.305-6.716-10.617-7.488-.094.144-.222.337-.314.481.11.241.244.569.354.804.183.372.183.372 6.414 6.847 2.382 2.476-.288 5.76 1.327 8.364 4.234 6.839 4.234 6.839 7.352 8.897 4.503 2.979 4.686 3.558 4.626 5.102-1.741 1.608-2.54 2.338.919 8.753 1.502 2.798 1.267 8.901.78 9.765-2.385-.008-3.689-2.196-5.064-4.511-2.895-4.872-18.428-20.316-19.142-20.83.67 2.22 2.06 6.826-.728 8.119-8.671 4.014-18.064-17.97-18.159-18.198-.694-1.686-.722-2.134.563-3.063 3.521-2.514 3.521-2.514 4.393-8.907.032-.254.21-2.655-4.27-9.535-.052-.09-6.055-10.661-6.304-12.533-.154-1.246-.154-1.246.783-3.296-.498-1.165-1.78-1.718-2.262-2.898zm88.529 427.544c.06.024.136.06.191.083-.858 2.559-6.196 9.726-7.943 11.909-.704.885-.704.885-1.002 1.095.651-1.072.651-1.072.678-1.285-7.399 7.67-14.199 15.89-21.946 23.243-9.496 9.02-9.496 9.02-11.991 8.991.272-.973 9.583-12.76 16.474-18.127 2.265-1.765 3.12-2.427 5.401-5.723 4.59-6.632 5.547-8.013 8.596-9.087 3.725-1.319 3.866-1.368 9.554-8.654 1.397-1.785 1.397-1.785 1.988-2.445zM184.402 341.149c.745-.137 1.287-.237 4.994.621 3.35.778 3.689 1.191 3.584 1.366-.19.341-4.713.813-6.123.636-1.981-.244-4.081-1.808-2.455-2.623zm-27.235-11.084c1.276-.204 21.514 1.504 20.513 5.388-.327 1.256.706 2.268.632 3.475-.024.327-.258.392-.614.449-.029.007-7.367-.204-11.622-.919-.838-.136-1.075-.157-1.339-.126-2.381.224-2.071 3.903-4.842 3.629-1.595-.162-.709-2.192-1.829-2.814-2.514-1.395-5.549-1.349-8.047-2.801-.071-.044-.1-.158-.145-.227.232-.067.635-.191 4.725.454 2.221.356 3.833.611 4.215.281.153-.132 1.115-3.284-1.863-5.972-.297-.273-.297-.273-.289-.575.137-.124.181-.149.505-.242zm-21.03 3.725c2.276-.532 5.412 2.051 5.479 3.246.084 2.006-4.433 1.105-5.156.824-1.065-.409-2.057-3.315-.323-4.07zm446.101-36.048c-.469 2.867-.804 4.938-.01 27.608.188-1.463.188-1.463.476-4.78-.429 10.467-.429 10.467.162 11.726.435-1.573.6-2.197 1.032-6.147.201-9.651-.34-26.412-1.66-28.407zm-456.949 10.754c7.904-1.608 12.176 1.377 13.578 2.359.145.102 13.858 16.083 13.759 16.765-.184 1.257-10.889.454-12.597-1.803.626-.697 2.107-.634 2.014-1.959-.029-.418-.444-.942-1.01-1.664-.814-1.036-1.077-1.789-1.468-3.025-.802-2.477-1.064-3.311-4.934-4.3-2.11-.541-5.286-1.349-5.45-3.28a.979.979 0 01.143-.11c1.272.727 1.811.165 2.024-.244-.254-.706-2.904-1.994-6.867.304-2.774 1.606-6.15 2.11-6.718 1.561.023-.107 3.111-3.132 7.526-4.604zm455.98-55.515c.583 4.262 1.161 8.525 1.473 12.844a36.61 36.61 0 00-.196-.95c-.503-4.705-.918-8.6-1.277-11.894zm-19.279 2.038c.075-.098.241-.303.629-.146.479.2.768.64 1.196.898.331.197.711.311 1.021.314.485.003.898-.303 1.379-.303.103.032.193.06.193.443 0 .063 0 .155-.006.218 0 .037-.34 3.591-.596 3.837-.151.146-1.804-.149-1.804-.149-.169-.046-.5-.177-.85-.569-1.129-1.238-1.617-3.989-1.162-4.543zm-16.96-7.542c.124-.006.124-.006 1.538.563.794.321 1.647.297 2.461.504.167.057.637.211 1.083.736 0 .006 2.491 3.427 2.511 3.457.023.024.005.078.023.116-.043.019-.088.051-.139.067-1.495.531-7.082-2.577-7.917-4.109-.387-.722-.202-1.294.44-1.334zm26.883-31.195c.539 1.697 1.112 3.497 1.729 5.421 3.391 12.404 4.236 15.465 6.528 30.36-.78-3.981-1.566-7.965-2.094-11.988.033.099.059.22.085.331l-1.498-6.786c-.081-.381-.208-.88-.301-1.261.225 1.007.454 2.005.666 3.014-1.483-6.417-1.594-6.914-5.115-19.091zm-5.505-15.598c.13.171.233.407.67 1.544l-.044-.135 3.209 9.331-.142-.387c.272 1.272.76 2.48 1.176 3.708l.173.527a16.753 16.753 0 01-.445-1.113c.331 1.1.628 2.099.908 3.04-2.397-7.271-4.105-12.437-5.505-16.515zm-63.114 2.753c.631.068 1.27.276 1.529 2.046.167 1.121.094 2.257.251 3.383.157 1.046.555 2.042.71 3.09.031.278.076.655.07.936-.07 2.517-3.228 3.526-3.848 3.375-.233-.06-.767-.192-.982-.947-.259-.923.11-1.869-.089-2.798-.212-1.021-1.348-.743-1.882-1.318-.764-.819-.631-4.246-.118-5.195.877-1.615 3.343-2.543 4.359-2.572zm-24.706 5.909c-1.145-1.111 1.79-1.435 3.623-1.288 1.691.161 2.655.549 2.531 1.011-.006.062-1.37 1.358-1.387 1.365-.237.194-.403.325-.744.341-.987.043-3.389-.813-4.023-1.429zm21.076-18.754c.399.298 1.038 3.545 1.044 3.575.396 2.141.818 6.264.36 6.517-.129-.061-1.85-2.394-2.131-2.774l-.039-.052c-.168-.241-.342-.629-.368-.817-.073-.525.133-.733.347-.959.31-.311.725-.735.725-1.878 0-1.031-.31-2.032-.149-3.068.005-.059.02-.144.035-.206.039-.206.101-.293.142-.33 0 0 .021-.003.034-.008zM11.909 174.087c.609-.111.23.847.202.889-.054.121-.11.286-.17.405-.5 1.067-1.124 2.096-1.655 3.156-.88 1.771-1.414 3.635-2.37 5.386a.69.69 0 01-.205.247c-.398-.501 1.884-8.686 3.898-9.967a1.05 1.05 0 01.3-.116zM233.86 138.3c.11-.019.256.034.357.069.258.805-.597 2.512-2.534 5.07-.427.554-1.04 1.256-1.358 1.871-.219.444-.219.599.227.837.855.446 1.397.836 2.01 3.077.318 1.188.623 1.481 2.028 1.175 4.607-1.016 4.607-1.016 5.913.409 2.51 2.74 5.018 7.918 4.771 11.252-.159 2.074-1.713 4.523-2.967 4.674-.24.026-.644-.056-.686-.916-.044-.794-.107-1.995-.722-2.653-1.241-1.314-2.557-.031-3.83-.108-.406-.029-.933-.219-1.332-.327-3.493-.966-6.788-1.367-11.27-1.734-7.839-.641-7.839-.641-8.178-.821-.217-.108-.618-.311-.115-1.024 1.298-1.848 3.209-3.096 4.596-4.867 2.592-3.318 4.39-7.19 7.031-10.478 2.185-2.714 5.001-5.147 6.059-5.506zm-34.943 13.802c1.821-.353 10.252 1.492 9.643 3.103-.015.033-1.75 3.043-6.741.264-.774-.438-4.565-2.63-2.902-3.367zm222.341-57.845c2.308.14-.507 3.257-.465 4.915.021.83.598.759 3.752.341.676-.089 1.699-.223 2.608-.186 4.994.197 2.553 8.434.707 10.099 0 0 .011 0 .021.006 1.462.063 4.373.486 7.546 2.521 1.835 1.177 2.918 3.076 4.422 4.573 3.136 3.124 7.446 4.447 10.882 7.129.778.615 1.029.983 1.164 1.185.008.024.024.055.029.079.097.517-1.274.031-2.282-.323-2.211-.494-2.211-.494-2.386-.439a.966.966 0 00-.086.181c0 .042 1.929 4.024 4.762 3.875 1.245-.066 2.791-.142 4.287 3.808.833 2.209-1.209 4.235-.423 6.446 1.653.596 3.587-.748 5.101.767-.023.074-.026.184-.078.247l-7.302 2.488c-.045.018-.115.018-.154.026-4.251.62-8.551.284-12.806.817-8.41 1.066-8.41 1.066-8.994.922l-.045-.363c1.047-1.127 2.447-1.838 3.473-3.002.827-.938.976-2.285 1.919-3.147.503-.465.898-.827 2.198-.809 1.342.026 2.224.042 2.128-1.127-.102-1.276-3.992-1.166-5.859-1.116-4.404.121-5.216-.82-5.357-1.114-.275-.554.472-.916.96-1.15 1.838-.891 3.126-1.629 2.841-3.008-.535-2.571-3.201-3.727-4.018-6.11l.036.096-.829-.064c-.052-.189-.084-.301.056-.342l.061-.012c.205 0 .472.088 1.065.353 1.653.134 1.699.155 2.36.469 1.679.801 3.969 1.896 3.506.01-.861-1.833-2.579-3.018-3.55-4.762-.319-.565.01-1.166-.099-1.742-.671-.465-1.131-.585-4.76-1.542-2.308-.617-4.138-1.103-5.692-4.68-.767-1.763 1.828-4.192-.412-5.435-.54-.305-1.222.223-2.029.833-2.174 1.657-3.213 1.778-3.704 1.589-.635-1.639.595-3.144.339-4.757-.308-1.949-1.655-3.53-1.953-5.487-.042-.218-.143-.528-.06-.738.863-2.106 6.521-2.305 7.076-2.319h.044zm-8.378 17.432c.095 0 .113.011.203.109.115.137.373.419 1.099.773 1.002.481 2.091.729 3.085 1.23.369.183.847.454 1.177.695.669.472 1.523 1.285 1.819 2.45.293 1.185-.091 2.133-.324 2.7-.548 1.326-.493 1.782.324 3.058.49.752.964 1.465 1.357 2.616.771 2.262.941 3.736.516 4.369-.764 1.122-2.081.745-3.063 1.262-.846.449-1.57 1.075-2.366 1.61-3.143 2.123-7.448 2.619-8.382 1.442-.541-.702-.636-1.521-.363-3.239.005-.037.789-4.312 1.881-6.55.042-.077.085-.18.105-.259-.857-.238-1.781-.063-2.602-.499-1.059-.554-1.287-1.175-1.455-1.626-.188-1.244.29-2.065.726-2.532.624-.668 1.262-1.354 3.964-2.746.178-.095.441-.219.591-.375-.576-.05-.726-.137-.979-.29-4.102-2.41 2.414-4.124 2.687-4.198zM146.863 93.404c1.365-.26 1.297.324.999.861-.931 1.66-6.057 5.208-6.906 4.484-.446-.38-.323-2.387.466-3.105 1.327-1.207 5.399-2.235 5.441-2.24zm8.398.902c.548-.095 1.24-.127.978.636-.361 1.063-3.333 4.61-4.21 3.778-.367-.33-.575-1.96.27-3.119.593-.805 2.932-1.286 2.962-1.295zm-11.454-13.789c.08-.025.206-.035.276.005.632.358.643 1.186 1.272 1.55.978.568 2.194.466 3.175 1.04.163.094.378.224.525.336.986.74 1.433 1.896 2.274 2.744.488.493 1.168.752 1.683 1.211.302.264.715 1.11.444 1.623-.128.23-.445.396-.546.431-2.074.689-4.102-.37-6.154-.152-3.045.32-5.638 2.397-7.19 3.636-1.076.858-1.607 1.267-1.869 1.31-.188.026-.188.026-.375-1.168-.164-.94-.164-.94-2.127-1.089l3.313-5.086c.359-.543.85-1.26 1.243-1.785.126-.165 3.156-4.204 4.056-4.606zM267.434.774c2.867-.138 10.063-.122 13.335-.013 2.331.084 4.383 1.671 6.806 1.235.677-.122 4.216-.73 7.013-.569.044.003 4.231.269 5.682.465-.126.031-.309.078-.447.115a7.4 7.4 0 00-.235.924c.329.149.771.373 1.103.54 1.573 5.993 8.133 3.494 11.359 6.653-.162.066-.395.15-.567.214-.061.139-.131.322-.191.46.943 1.465 1.04 1.619 12.093 8.14 3.388 1.993 4.527 2.67 2.883 4.34-1.189 1.199-1.628 1.77-.651 3.883.842 1.81.8 3.932 2.016 5.606 1.905 2.626 4.919 4.104 6.897 6.655 1.351 1.752.262 2.546.214 2.58-2.198 1.55-4.788 2.337-7.164 3.561-5.797 2.984-12.485 3.402-18.298 6.342-2.394 1.22-2.601 2.653-2.948 5.253-.353 2.52-.353 2.52-13.667 6.549-4.229 1.284-4.305 1.308-4.995 2.446-1.294 2.204-.097 4.606-.536 6.877-.029.155-3.079 15.585-4.869 17.585-1.08 1.212-1.438 1.617-18.343-1.626-6.762-2.28-20.868-26.147-21.216-27.254-.742-2.347.223-6.347 1.213-7.801 1.783-2.648 5.403-2.546 7.389-4.898.037-.034 2.274-3.93-2.572-6.081-2.836-1.267-4.749 1.211-7.13 1.767-.787-1.37-.201-2.981-.779-4.389-.379-.921-1.686-1.005-1.887-2.088-.055-.285-.057-.363 1.048-2.42 2.724-5.069-5.669-14.393-5.76-14.47-1.276-1.1-1.506-1.299-19.564.023-.089.01-7.373-1.24-4.475-5.128.45-.611 10.946-3.648 11.046-3.674 2.07-.561 5.93-1.603 7.407-3.415-1.934.002-1.934.002-2.405-.253.097-.045 9.773-4.384 23.252-5.886 1.819-.172 2.394-.164 3.931-.148 3.751.062 3.751.062 4.033.03-1.006-.252-1.006-.252-4.368-.503-.06-.008-.123-.013-.177-.026-.019-.003-.045.01-.05-.016.031-.068.104-.023.157-.031h.01c2.752-.528 2.752-.528 8.495-.843l.023-.003c.609-.41.609-.41 5.889-.708zm-99.833 38.071c1.145-.212 4.999-.862 6.233-.379.178 4.42.396 4.928.595 5.417.479.028.508.034 3.548-1.109.84-.315 1.767-.663 2.707-.998-1.438.256-2.826.3-3.58-.216-.613-.42-1.434-1.897 1.19-2.266 3.004-.383 7.059.622 7.362 1.01-.016.01-.036.031-.059.042a1.762 1.762 0 00-.035.014c.549-.094 1.034-.134 1.425-.103 2.078.165 1.892 2.62 3.407 3.359 1.428.7 2.997.254 4.467.489 3.325.536 10.177 7.011 10.339 8.402.063.536-.961.99-3.016 1.898-4.682 2.075-5.208 2.473-5.753 2.904l19.496 4.41c.029.327-.065.764-.162 1.075-.042.104-4.022 10.263-6.692 10.765-.959.18-2.015-1.184-3.032-2.504-.044-.058-4.305-5.412-6.238-5.25-.063.003-6.273 1.969-4.986 5.61 1.559 4.431 6.649 4.057 9.388 6.896 1.257 1.308-1.36 7.208-2.93 7.691-.267.079-.655-.185-1.197-.554-2.778-1.88-4.321-2.502-9.207-3.027 6.264 5.822 6.264 5.822 6.634 6 .733.36.733.36.849.789-2.877 1.592-16.963-1.333-18.782-2.936 3.323-1.239 3.323-1.239 3.988-1.942-8.238-3.613-8.238-3.613-12.87-2.047-6.066 2.047-8.104 1.799-8.736 1.229-.416-.366-.372-2.797 1.077-3.566 3.275-1.741 7.022-1.542 10.473-2.572 11.534-3.449 12.372-11.707 12.372-11.785-.039-3.683-3.906-3.464-5.588-5.472-1.331-1.592-1.937-3.654-3.362-5.178-.016-.021-2.691-2.33-3.7-2.86-.414.664-1.027 1.673-5.177 2.122-4.897.536-4.753 1.15-4.528 2.09-1.509.729-12.734 3.016-15.991.797-3.291-2.238 14.204-16.865 20.071-18.245zm-45.394 14.126c.034.092.087.213.123.308.311.1.637.143.935.3.144.628-6.246 8.331-6.972 9.208-.831.995-.181 2.69 1.373 3.554.246 1.21-1.253 2.555-1.269 2.565-.261.187-.402.233-1.11.197-1.982-.095-4.873 2.057-5.175 3.01 2.749-1.453 2.749-1.453 3.055-1.394-.016.028-.037.051-.136.164-2.893 3.175-2.893 3.175-5.852 4.154-.021.003-3.165-.67-3.57-1.051.052-.154.052-.154.442-.885a2.168 2.168 0 01-.175-.108c-.849.31-1.473.808-2.985 2.006-4.706 3.718-13.008 7.344-14.026 7.331.522-.949 1.535-1.554 1.925-2.598-.042-.043-.087-.102-.128-.148-.854-.044-1.541.728-2.434.515-1.42-.34-.65-3.787 7.288-6.134 1.201-.359 4.037-1.195 6.153-2.803-1.191.257-2.377-.254-3.56 0-1.676.367-3.052 1.472-4.729 1.798a.963.963 0 01-.556-.072c-.013-.425.12-.777 3.144-2.572 1.797-1.07 1.81-1.09 2.105-1.572a3.416 3.416 0 00-.593-.308c-.106-.527 1.132-1.734 2.963-3.176l-.732.532a.885.885 0 01-.37.145c-.029-.032-.077-.08-.106-.115-3.513 2.739-6.398 6.298-10.515 8.25a4.27 4.27 0 00-.152-.066c1.229-2.597 2.415-3.584 3.915-4.828 17.195-14.252 17.195-14.252 21.094-15.904.112-.046.261-.083.375-.118a.605.605 0 00.122.07c-.122.563-.122.563-.923 1.269.95-.515 1.761-1.29 2.865-1.524.018.056.053.134.077.19-.923 1.744-.923 1.744-1.644 2.28-3.127 2.296-6.536 4.15-9.706 6.376-1.414.998-2.679 2.184-4.045 3.247 4.432-3.448 11.961-8.095 12.766-8.175-1.303 1.377-3.199 2.075-4.34 3.634 1.857-.695 3.298-2.175 5.225-2.747.04.044.102.103.147.147-.342.692-1.042 1.084-1.442 1.715 1.452-.307 2.58-1.32 3.936-1.818l.263.182c-.423 1.003-1.888 1.452-1.556 2.847 3.457-1.934 5.479-5.365 8.437-7.822.021-.015.055-.038.073-.056zm1.38 13.762c.136.002 1.146.49 1.647 1.324.003.015 1.131 2.049.679 2.578-.01.013-1.699 1.634-5.757 2.37-.646.118-1.296.18-1.422.136-.414-.14-.339-.63-.65-.835-.167-.114-.28-.122-1.175.058-.57.12-.74.155-.92.132-.02-.007-.043-.032-.061-.047.108-.337.817-.762 3.169-2.159 1.416-.844 2.39-2.163 3.685-3.142.329-.255.514-.337.671-.395.039-.01.09-.02.134-.02zm240.199-10.088c1.488-.083 2.398 1.18 3.638 1.695 1.737.724 3.629.284 5.397.78.203.06.462.16.664.238 1.177.483 2.178 1.672 2.52 2.307.034.102.008.246.008.356-.482-.027-.482-.027-.666.152.241.82.949 1.383 1.133 2.23.3 1.3-5.655 5.744-9.559 6.73-4.315 1.084-5.079 1.095-5.629 1.103a7.282 7.282 0 01-.643-.017c-1.553-.098-3.005-.809-4.558-.918-.682-.048-1.413.01-3.547.24-3.256.355-3.583.214-3.964-.12-.01-1.488-.015-2.107-1.657-2.577-1.558-.457-3.401 1.03-4.786-.721 3.233-2.75-2.564-4.818-4.402-4.476-1.047.197-2.909.47-3.448.072.933-1.418 3.238-1.098 3.705-3.1-.731-1.007-2.362-.71-2.831-2.094 1.651-1.357 7.565.336 8.962 3.066.617 1.201 4.343 4.358 4.83 4.558 1.598-1.322.288-3.055.615-4.558.132-.086.311-.2.441-.286.876-.52 1.778.462 2.655-.062.816-.488.064-1.81 1.101-2.17 1.629-.567 3.368-.463 5.015-.866 1.7-.409 3.303-1.138 5.006-1.562zm-186.838 7.367c1.394-.215 1.726.677.98 2.64-.026.058-2.263 5.6-3.963 4.531-.695-.43-2.441-3.174-2.001-4.232.772-1.836 4.945-2.928 4.984-2.939zm-33.431-19.258c.624-.095.739-.003.852.076-.015.14-2.037 1.947-2.052 1.96-1.604 1.139-3.4 1.918-5.002 3.053.814-.203 1.571-.646 2.433-.676.783-.027-.411 2.48-.819 2.918-1.87 1.977-8.719 6.21-9.484 5.363-.054-.054-.082-.165-.097-.238-.064-.482.213-.9.213-1.368.01-.263-.144-.482-.193-.73-.113-.634-.431-1.193-.587-1.807-.026-.081.013-.2.041-.276.295-.733 2.807-2.147 3.318-2.228-.023.722-.983 1-.778 1.828.167.013.205.016.508-.152.726-.41 3.431-2.528 3.616-2.834.105-.17.251-.403-.247-.765-.318-.23-.682-.049-1.013-.16-.003-.024-.016-.062-.021-.094.56-.817 4.632-2.861 5.889-3.154 1.024-.227 2.053-.435 3.072-.651.103-.025.241-.049.351-.065zM130.332 49.3l.039.002c.507.048.207.545-.999 1.685-.288.266-2.814 2.608-3.67 2.88-.522.162-.135-.712.018-1.038.253-.541.235-.57.178-.756-.25-.111-.505.025-.757.022l-.039-.035c.096-.244 1.915-1.906 4.456-2.625.48-.13.708-.142.813-.133l-.039-.002zm114.828-3.63c1.011-.137 1.38.142 1.38.142.03.029.045.086.045.129 0 .148.013.404.202.67.305.427.825.584 1.077 1.066.124.219.25.47.134.86-.187.61-.933.984-.933.984l-2.867.644a2.65 2.65 0 01-1.991-.39c-2.001-1.383 1.666-3.794 2.953-4.105zM143.452 35.54c-1.723 1.903-3.793 3.39-5.565 5.236 1.43-.867 2.669-2.05 4.103-2.904.007-.01.768-.45 1.424-.403-.101.184-.165.297-1.072.964-.043.032-4.726 3.472-5.967 4.155-1.564.854-3.266 1.324-4.901 1.98-.01.008-2.6 1.18-7.66 4.172-1.272.75-2.582 1.518-2.985 1.478-.474-.056-.463-.58.39-.982 2.41-1.126 6.675-3.486 7.992-4.43-1.452.541-2.158.944-2.536 1.163-1.409.801-1.447.801-1.591.801.816-.683 1.89-1.022 2.468-2.03-1.773 1.034-2.998 1.749-3.847 2.242-1.893 1.4-2.084 1.4-2.273 1.402.037-.056.164-.17.359-.327-.022.006-.029.002-.037-.003.101-1.751 12.084-7.854 12.201-7.876.856 1-1.216 1.42-1.83 2.122a.934.934 0 01-.111.125c-.119.126-.246.256-.347.4a.887.887 0 01.096.107c4.477-1.1 5.268-2.684 5.397-3.314.183-.857 6.041-4.022 6.099-4.057a5.1 5.1 0 00.193-.021zm-2.823 0l.07.011a2.547 2.547 0 01-.811.709l-10.257 6.115c.15-.168.15-.168 3.174-2.165-2.989 1.536-5.579 3.8-8.631 5.23.05-.04.121-.107.163-.16-1.309.668-2.278 1.98-3.822 2.187 3.095-2.658 17.611-10.821 19.8-11.847.111-.047.276-.105.384-.069l-.07-.011zm1.803 5.695c.29.024-.086.23-.488.396-1.1.453-3.729 1.055-3.978 1.06-.006-.007-.019-.014-.019-.021.102-.083 1.724-.782 3.117-1.182 0 0 .469-.132.998-.22.124-.019.252-.042.37-.033zm17.055-8.406c.265-.055.265-.055.479-.005-.105.173-.156.212-.852.746-3.237 2.496-3.237 2.496-4.469 3.59a.154.154 0 00.04-.066c.095-.242.029-.349.011-.383-2.678 2.178-2.678 2.178-3.086 2.388-.601.309-5.347 1.95-5.366 1.946a.255.255 0 00-.04-.055c.276-.814 3.806-2.637 5.133-3.321-4.027 1.234-4.198 1.287-4.426 1.224l-.031-.01c-.024-.066-.024-.066.169-.416-.236-.141-.466.103-.686-.005 1.449-.766 3.197-.936 4.511-1.968.008-.028.008-.077.008-.112-.127.005-.257.018-.382.015 1.145-1.099 2.246-1.21 2.358-1.153 0 .178-.106.328-.165.486-.137.312-.315.727-.45 1.035 1.354-.978 1.407-1.017 1.801-1.44.276-.303.435-.686.686-1.017a.295.295 0 01.117-.086c.421-.23 4.606-1.388 4.64-1.393zm.248 2.711c.907.086-1.076 2.143-2.041 2.983-1.688 1.455-3.663 1.903-4.444 1.414-.913-.574-.709-.718-.118-1.141.267-.184 4.653-2.763 6.229-3.2.11-.028.266-.059.374-.056zm-20.892 2.273a.138.138 0 01.022.01c-.057.056-.371.195-.553.27-.907.388-2.034.757-2.2.665.022-.125 2.178-.811 2.597-.92a.655.655 0 01.134-.025zm11.713-3.19l.048.003c.281.052.437.395-.971 1.345-2.565 1.729-3.407 1.378-3.417 1.368-.046-.037.056-.139.159-.217a91.243 91.243 0 011.931-1.557c.167-.11 1.176-.607 1.856-.853.218-.065.353-.102.442-.086l-.048-.004zm35.178-6.422c.04.002 3.852.215 2.305 1.675-5.7 5.389-27.211 7.497-27.402 7.497-.6.01-1.359.026.528-2.03.967-1.05 2.44-1.4 3.489-2.333.093-.086 1.802-2.175 1.271-2.506-.281-.175-1.606.263-2.572.585-.852.273-.884.273-1.322.286-.016-.408 1.67-2.091 2.203-2.299.645-.156 1.667-.286 1.97-.319 1.014-.1 1.999.261 3.018.145.874-.102 1.649-.615 2.557-.572.377.02 2.1 1.073-1.381 2.01-.661.18-.953.27-1.117.453-.38.41 1.019 1.996 2.806 1.308 2.004-.772 11.667-3.95 13.647-3.9zm-33.107 1.834a1.367 1.367 0 01-.222.146c-.398.211-1.139.53-1.68.763-1.58.684-1.628.72-1.698.81l.053.018c-.02.082-.061.162-.048.249-.272.216-5.217 2.677-5.58 2.6.612-.555 4.212-2.99 8.84-4.52a2.08 2.08 0 01.335-.066zm3.532.08c.104-.024.12-.018.138-.006-.005.015-.005.044-.151.15l-.76.538c-.135.101-.25.224-.395.322-.07.056-.16.102-.243.146-.007.006-1.087.533-1.204.542.372-.422.372-.422.232-.477l-.002-.017c.09-.099 1.546-.976 2.385-1.198zm1.72-3.69c.178-.07.178-.07.252-.042-.173.178-1.297.937-1.307.946-.988.664-1.602.991-1.664 1.023-.683.368-.683.368-1.359.565-.654.187-1.201.66-1.805.978l-2.122 1.058c3.808-2.601 7.963-4.513 8.005-4.529zm79.155-22.08c-3.217.826-6.517 1.307-9.729 2.163 1.26-.086 1.466-.115 4.814-.593-.663.194-13.599 4.224-13.662 4.247 1.002-.18 1.002-.18 1.461-.146-1.785 1.18-4.402 1.87-10.142 3.366.099.037.227.079.319.113-.053.525-2.226 2.85-8.423 4.343-1.038.25-5.625 3.16-6.145 3.886.238.053.551.128.783.196.629 1.714-6.306 5.085-8.474 4.652.683-.517.683-.517.921-1.094-3.259-.716-5.887 1.386-8.853 1.977-4.016.788-4.454.765-5.067.734a3.544 3.544 0 01-.191-.275c1.944-1.914 4.791-2.068 6.985-3.512.096-.706.321-2.168 4.175-2.265.388.436.983 1.097 6.071-1.677-2.953 1.095-3.295 1.134-4.185 1.249.021-.092.07-.212.094-.3-.582-.361-1.302-.246-1.907-.518.266-.23 7.177-4.239 9.839-3.434.856-.781 1.338-2.492 1.338-2.837.457-.35.809-.632 1.981-.88 5.036-1.065 9.753-2.632 15.72-4.62-1.435.41-10.351 2.86-13.114 3.508.877-.322 1.754-.627 2.602-.98-4.456 1.174-4.766 1.168-5.267.935l-.066-.031c1.098-1.33 11.811-3.939 12.727-3.824 1.31.162 1.756.024 2.275-.136a1.313 1.313 0 01-.501-.404c2.688-1.037 15.152-3.168 15.28-3.184.042-.008 5.226-.65 8.341-.658zm-66.29 17.487c.169-.063.169-.063.232-.04-.358.538-1.057.5-1.345 1.16.321.006.586-.336.924-.204 0 .52-2.516 3.12-3.299 3.616-.151.1-2.314 1.136-2.478.877.109-.55.727-.528.846-1.069a6.08 6.08 0 00-2.532.367c-.118.042-.242.093-.373.108.288-.256 1.635-.925 2.453-1.292 1.196-.532 1.458-.706 1.39-.931-.494-.051-.938.384-1.443.213.371-.294 3.364-1.928 5.625-2.805zm2.747.04c.258-.093.351-.13.554-.05a.325.325 0 01.174.137.077.077 0 01.021.056c.078.143 0 .289 0 .429.016.295.406.149.406.463-.01.264-.114.382-.64.674-1.181.662-5.301 2.719-5.743 2.784-.013-.012-.024-.034-.039-.05.255-.767.71-.97 2.055-1.556 1.084-.482 1.683-1.706 2.583-2.465.26-.226.483-.348.629-.422zm5.706 1.74c.005.012.027.034.036.048-.098.103-.218.185-.333.265-1.343.92-1.814 1.097-2.803 1.37-1.991.547-5.695 1.143-6.038 1.063.192-.115.747-.307 1.652-.581 1.271-.385 2.58-.634 3.855-1.01 1.095-.324 2.166-.749 3.274-1.07.048-.019.115-.033.17-.05a.887.887 0 01.187-.034zm18.928-11.002c.104-.015.264-.002.375-.002-.346.452-.944.6-1.325 1.017.139.605-.527.718-.801 1.075.168.136.381.083.57.128-.032.168-.046.231-1.802 1.012-.218.098-.442.186-.647.312.016.023.024.058.035.085.931.196.931.196.998.259a1.128 1.128 0 01-.266.178c-1.251.596-2.659.754-3.947 1.289-2.052.864-3.869 2.175-5.993 2.898-.878.3-1.815.1-2.69.342-2.198.6-2.198.6-2.297.56-.327-.14-.255-1.005.519-1.457.216-.13 1.096-.505 4.54-1.537 1.261-.382 1.682-.512 2.052-.728a.463.463 0 00.032-.141c-.423-.163-.817-.068-2.097.299-.29.08-2.864.806-3.114.673.013-.013 1.2-1.276 3.555-1.78.684-.141 2.276-.486 2.848-.94-.397.058-.766.23-1.179.168.756-.462 8.503-3.207 10.634-3.71zm-17.057 6.545c-.05.058-.071.08-3.418 1.102-1.012.307-1.793.536-2.023.46 0 0-.383-.23.736-.572.976-.288 4.328-.945 4.358-.952.108-.017.219-.046.347-.038z" stroke="url(#paint0_linear)"/><defs><linearGradient id="paint0_linear" x1="293" y1=".675" x2="293" y2="584.189" gradientUnits="userSpaceOnUse"><stop stop-color="#F2C94C"/><stop offset="1" stop-color="#fff"/></linearGradient></defs></svg>