<svg width="586" height="585" viewBox="0 0 586 585" fill="none" xmlns="http://www.w3.org/2000/svg">
<path fill-rule="evenodd" clip-rule="evenodd" d="M154.969 41.2878C156.552 40.9999 156.552 40.9999 157.536 41.1177C143.394 49.4793 143.394 49.4793 140.364 54.1691C140.599 54.3444 140.93 54.5826 141.163 54.7605C141.16 55.7995 141.16 55.7995 135.85 64.3731C138.919 64.4987 138.919 64.4987 139.099 64.5667C139.062 64.6086 135.574 69.178 136.176 70.9105C138.71 68.6651 140.088 65.2027 143.519 63.9072C146.543 67.0844 140.072 69.1492 139.602 72.3552C144.983 77.1784 148.169 66.7729 152.597 64.2187C155.016 53.7765 162.212 61.1436 162.288 61.2169C161.891 61.9968 161.797 62.9075 161.241 63.6194C160.229 64.6871 158.431 64.5458 157.667 65.9852C156.837 67.545 158.353 69.2121 157.44 70.7666C157.108 71.3188 156.532 71.9757 156.044 72.4023C153.797 74.3808 153.797 74.3808 145.254 77.4742C142.689 75.8464 140.255 78.801 140.229 78.8324C140.693 78.8612 141.293 79.0758 141.674 79.3402C137.953 85.0873 131.631 81.9939 126.728 83.7656C130.872 86.1315 131.934 85.943 137.03 85.0506C129.536 93.0641 129.536 93.0641 116.364 95.4169C117.658 96.4375 119.925 95.5216 120.703 97.5969C113.932 102.637 98.075 114.446 99.2101 120.965C104.241 121.365 104.241 121.365 104.601 123.503C105.621 129.633 105.621 129.633 106.427 130.295C108.752 129.63 110.662 127.657 113.337 128.109C113.861 128.196 114.545 128.374 115.051 128.549C117.984 129.583 119.542 132.695 122.603 133.524C125.606 134.341 128.985 131.889 131.782 134.595C132.296 134.581 132.988 134.626 133.497 134.702C133.567 134.953 133.497 135.469 133.567 135.717C133.118 136.073 132.351 136.725 131.894 137.081C132.774 139.248 133.457 140.962 131.86 145.657C134.804 147.766 138.579 148.703 140.706 151.969C147.498 147.246 143.576 139.782 145.15 133.804C146.347 132.888 146.491 132.75 146.778 132.381C146.149 130.2 149.098 129.264 150.392 128.963C156.312 127.589 156.125 117.285 156.114 117.181C156.028 114.613 153.338 113.056 153.497 110.394C153.635 108.099 156.174 107.442 156.813 105.493C153.497 101.313 158.392 97.7147 157.641 93.7184C161.839 91.9649 166.444 92.9202 170.737 91.7634C171.527 91.6875 171.767 91.6666 172.814 92.0147C177.513 93.5692 177.98 94.3727 178.184 94.7155C178.779 95.7257 179.05 96.0319 179.494 96.1941C181.398 96.8929 183.41 95.9665 185.312 96.6024C183.34 98.2015 182.051 104.896 182.625 105.914C185.871 106.636 188.48 109.68 192.219 108.536C192.819 108.353 192.819 108.353 194.962 105.414C195.904 104.134 197.688 105.184 198.675 104.043C199.538 103.051 198.213 102.007 198.737 101.007C202.101 94.5637 202.101 94.5637 208.976 106.88C211.708 111.763 211.708 111.763 210.461 113.506C209.61 114.684 209.31 115.223 209.754 115.833C210.821 117.272 212.929 116.911 214.007 118.337C214.8 119.397 213.905 120.614 214.302 121.713C214.975 121.938 214.975 121.938 216.251 121.606C221.921 120.114 226.427 124.006 226.169 124.692C225.992 124.972 225.556 125.17 225.258 125.32L225.185 125.348C219.408 127.594 218.667 127.882 217.107 130.112C217.277 130.499 217.509 131.02 217.684 131.404C222.795 128.057 225.673 127.772 226.634 127.678C226.634 127.678 226.657 127.672 227.99 127.685C229.559 128.005 231.119 128.348 232.685 128.685C232.945 129.088 233.287 129.63 233.551 130.036C232.144 133.522 232.144 133.522 233.107 135.882C230.125 141.31 210.61 151.017 206.268 148.036C187.178 153.841 187.178 153.841 168.589 173.231C195.593 156.288 195.593 156.288 197.537 158.211C196.731 162.027 193.996 162.77 190.202 163.806C191.282 165.133 191.447 165.34 193.981 166.269C195.032 169.54 195.494 170.914 198.189 172.189C197.386 170.566 198.26 168.368 198.401 168.14C198.424 168.125 198.458 168.104 198.479 168.091C198.529 168.125 198.594 168.164 198.565 168.614C198.466 169.766 198.675 170.574 200.055 171.27C200.616 171.553 202.2 172.158 204.979 171.723C205.391 171.655 205.438 171.655 205.571 171.689C205.582 171.702 205.589 171.72 205.605 171.734C205.6 171.76 205.589 171.796 205.579 171.82C205.571 171.838 204.384 173.513 202.831 173.84C204.389 174.306 206.273 174.832 208.58 175.481C210.354 172.786 210.482 169.116 213.454 167.12C217.31 176.879 195.708 189.472 188.689 189.352C188.825 187.198 188.825 187.198 199.186 179.818V178.261C198.197 178.287 196.887 177.957 195.966 177.609C196.149 177.227 196.384 176.724 196.564 176.347C178.661 186.75 178.661 186.75 177.623 186.698C171.457 192.482 171.457 192.482 170.291 203.515C169.364 203.447 156.816 210.281 156.746 210.359C153.797 213.233 154.436 217.553 152.526 220.846C152.169 219.108 150.83 217.925 150.053 216.425C149.15 230.492 149.15 230.492 148.145 231.144C148.153 231.126 148.156 221.503 147.986 218.346L145.836 239.717C146.238 239.864 146.77 240.071 147.175 240.217C147.125 240.722 147.052 241.395 147.005 241.9C146.595 242.018 146.053 242.18 145.648 242.301C145.601 242.719 145.533 243.282 145.481 243.703C145.768 244.03 146.149 244.46 146.434 244.787C146.444 244.779 146.449 244.779 146.595 244.797C140.103 252.243 128.492 254.949 126.545 266.608C124.672 277.885 141.648 287.814 131.078 299.002C122.115 293.792 127.811 280.636 118.469 275.637C118.378 275.582 96.5851 277.482 93.8401 279.076C93.7383 279.531 93.6131 280.13 93.5165 280.586C94.7064 281.531 96.2563 281.928 97.3027 283.085C96.9347 283.389 96.4468 283.8 96.0789 284.103C95.9719 284.051 82.2521 280.947 78.7191 283.682C76.736 285.215 68.2922 293.847 66.8754 298.437C65.7873 301.983 69.9492 303.49 70.0118 306.594C70.124 311.446 65.816 315.461 67.3398 320.596C68.574 324.746 72.261 332.64 83.074 338.852C87.6899 341.506 90.2784 335.84 94.3045 336.099C96.8017 309.625 108.486 319.08 109.814 320.245C108.695 326.704 108.695 326.704 105.658 333.822C107.346 337.403 107.346 337.403 105.037 345.094C112.048 345.568 119.111 341.899 126.068 345.432C126.12 345.453 129.943 352.066 128.656 361.035C126.545 375.863 149.426 365.819 158.332 372.165C161.009 348.305 184.72 351.883 214.73 356.416C215.721 356.557 217.013 356.965 217.916 357.4C224.116 360.396 228.003 366.366 233.788 369.891C241.094 374.335 250.18 372.898 257.559 377.117C263.198 380.344 267.232 386.067 272.633 389.595C275.796 393.021 276.255 398.975 281.393 400.869C290.236 403.086 299.246 404.638 307.971 407.336C313.827 409.145 317.834 414.473 323.951 415.81C325.84 416.219 327.711 414.803 329.608 415.768C332.277 417.132 329.456 420.024 329.853 422.136C330.119 423.546 331.265 424.578 331.518 425.988C331.544 426.127 331.534 426.328 331.526 426.47C331.507 426.585 327.343 439.327 315.611 443.614C315.705 444.004 315.964 444.504 316.201 444.831C317.49 446.606 316.814 447.61 314.98 450.306C313.399 452.638 314.805 455.095 314.69 457.487C314.482 461.761 314.873 466.048 314.299 470.311C314.038 472.253 313.871 472.232 311.82 471.968C310.638 471.811 309.213 471.847 307.632 473.284C304.12 476.493 304.047 482.35 299.073 484.42C296.897 485.33 291.613 487.9 289.599 492.245C289.555 492.585 283.587 526.594 269.575 526.979L271.389 529.53C272.978 531.865 270.922 536.976 264.758 535.084C264.492 535.249 264.145 535.468 263.887 535.628C264.14 538.106 264.14 538.107 260.662 541.213C265.178 547.502 265.178 547.502 265.212 547.894C261.468 547.774 261.468 547.774 260.662 548.033C265.87 562.419 265.87 562.419 268.625 565.371C266.754 573.796 266.754 573.796 286.606 584.052C286.416 584.115 265.802 587.436 244.492 557.36C227.696 533.644 218.041 490.217 217.958 489.803C216.181 480.662 212.481 473.669 207.541 470.112C201.054 465.438 192.718 464.229 186.57 458.903C186.369 458.725 161.174 433.743 155.039 424.609C154.676 424.07 154.275 423.3 153.964 422.732C152.02 419.265 156.547 400.691 156.605 400.519C161.283 390.215 161.283 390.215 160.717 387.742C158.885 379.914 153.755 363.204 145.426 377.138C126.718 377.805 119.644 356.588 102.566 354.196C101.994 354.115 101.224 354.026 100.656 353.963C96.833 353.555 96.833 353.555 85.9625 347.34C81.2136 344.626 76.068 347.421 71.2225 346.243C66.4892 345.094 61.662 344.34 56.9521 343.129C55.6005 342.781 53.9619 341.849 52.665 341.352C51.9579 341.072 50.969 340.724 50.3506 340.281C45.766 337.052 46.8306 331.347 44.6048 327.083C41.8468 321.786 36.2394 319.091 32.9438 314.278C30.4049 310.564 27.4799 307.133 25.0924 303.313C23.9703 301.525 23.3467 298.67 22.7909 296.144C22.0107 292.603 21.3923 289.803 15.5422 285.514C20.1195 304.134 22.8574 308.281 25.2613 311.708L25.4081 311.917C30.4748 319.137 29.7764 320.974 28.7863 322.468L28.6097 322.729C28.508 322.606 16.8417 307.482 15.2422 304.126C16.1815 304.077 17.4314 304.037 18.3734 304.024C5.14672 276.849 5.14672 276.849 4.36131 276.72C-1.71318 266.043 1.47019 208.859 10.595 197.459C11.3517 197.834 12.3537 198.365 13.0921 198.784C13.2049 196.784 12.6331 194.906 11.979 193.043L11.7144 192.299C11.7144 192.338 11.6987 192.374 11.7039 192.408C11.7222 192.767 11.8083 193.118 11.7874 193.474C11.7822 193.722 11.7483 194.298 11.5422 194.814C11.2995 195.387 10.9237 195.787 10.5245 195.913C10.5036 195.913 8.97198 196.214 8.34052 194.052C7.57077 191.424 8.25181 188.226 8.25963 188.203C8.27007 188.2 8.28051 188.19 8.28051 188.19C8.55971 188.255 8.90153 189.373 8.99024 189.713C9.1729 190.375 9.21204 190.414 9.31119 190.516C9.42339 190.637 9.58517 190.689 9.9009 190.713C10.5637 190.757 10.9968 190.864 11.2604 190.959C10.5819 188.938 10.0627 186.892 10.5141 184.665C12.3745 175.345 12.3745 175.345 14.0941 169.894C13.841 169.483 13.5122 168.941 13.2643 168.528C13.627 167.449 14.0941 166.002 14.4411 164.919C15.1013 161.187 15.1013 161.187 20.5182 147.499C20.4086 147.67 20.2703 147.887 20.1529 148.065C28.14 134.754 28.5654 134.192 46.7914 110.392C51.0316 105.621 56.6782 99.2614 60.9157 94.4904C60.6156 94.8621 60.2503 95.3933 60.0181 95.8147C66.8649 88.9632 72.3367 84.8413 72.3628 84.8282C69.9048 87.1103 67.285 89.2196 64.8636 91.5384L64.8871 91.5253C72.5507 84.9957 72.5506 84.9957 76.7412 81.1276C74.3041 84.1451 74.3041 84.1451 73.5057 85.82C75.0478 84.3257 75.0478 84.3257 75.9949 83.6374C75.6688 84.0614 75.2722 84.679 75.0191 85.1579C76.3968 84.221 77.3883 82.7162 79.147 82.3472C79.5097 82.6717 79.9376 83.1637 80.2168 83.5615C82.68 83.8284 82.8131 83.7552 83.669 83.2867C83.8673 83.394 84.1282 83.538 84.3265 83.6505C83.729 86.21 81.1692 86.7831 79.5854 88.3508C83.3767 88.9187 86.2209 86.066 89.6939 85.506C89.9078 87.3222 88.2587 88.8846 88.9659 90.7689C92.7859 83.2972 94.7012 79.5521 101.133 77.8903C101.681 78.6335 101.587 79.6333 102.104 80.3896C110.062 80.7638 112.215 79.3925 112.57 79.1125C119.017 74.017 119.017 74.017 121 74.53C117.543 78.2331 117.543 78.2331 119.393 80.1593C121.363 75.5689 126.631 74.1557 129.045 69.9972C128.828 69.9448 128.536 69.882 128.322 69.8349H128.307L128.333 69.2278C129.486 68.1233 129.88 67.8983 132.393 66.6473C132.335 66.4249 132.262 66.1291 132.21 65.9067C131.007 65.9826 129.82 66.2443 128.612 66.2469C128.497 66.0087 128.346 65.6973 128.228 65.4539C128.346 65.2472 143.652 43.9441 154.969 41.2878ZM436.402 46.5486C438.975 47.4702 440.282 50.2061 442.876 51.1067C441.638 49.6537 441.638 49.6537 441.292 48.8028C441.845 48.9651 449.301 52.3791 449.997 54.0076C449.625 53.9028 449.149 53.7327 448.785 53.5887C452.853 56.3534 453.893 56.7487 454.44 56.9582C454.576 56.8534 454.746 56.7147 454.88 56.6073C456.584 57.6258 456.956 57.9295 457.623 58.4688C457.291 58.3143 456.838 58.1363 456.49 58.0263C457.134 58.6207 457.794 59.2359 463.901 62.9248C472.402 68.0615 485.314 79.2251 486.401 81.2044C481.78 79.0785 478.431 75.1644 474.185 72.5228C482.683 79.2853 489.843 87.5297 498.258 94.3918C498.388 94.3001 498.574 94.1745 498.713 94.0802C496.734 92.0826 494.194 90.64 492.783 88.0743C493.629 88.6765 494.401 89.3833 495.312 89.8991C490.299 84.7048 490.1 84.4404 489.581 83.7387C490.053 84.1314 490.498 84.5451 490.956 84.9614L490.987 85.0006L503.043 97.201C514.33 109.349 514.678 109.825 532.889 134.682C537.138 141.033 542.256 149.859 546.246 156.383L556.616 176.681C561.247 186.709 562.826 190.144 566.239 200.215C566.198 200.168 566.158 200.126 566.111 200.071C566.268 201.627 566.268 201.627 575.965 233.808C575.916 233.722 575.85 233.596 575.806 233.505C579.772 257.151 579.947 258.222 581.966 264.906C582.29 267.077 582.633 269.394 583.008 271.923C583.874 280.337 584.283 291.619 584.754 300.059C584.809 308.356 584.238 319.185 583.846 327.845C583.869 327.364 583.874 326.866 583.893 326.34C583.209 336.338 582.751 340.017 582.387 342.96L581.505 349.384L581.345 350.411C581.201 351.332 580.976 352.555 580.801 353.469L580.802 353.459L580.849 353.155C580.899 352.826 580.955 352.462 581.007 352.135L581.046 351.888L581.034 351.954C580.663 354.046 580.504 354.401 572.841 370.941L572.601 371.458C571.245 371.157 571.245 371.157 568.192 372.589C567.3 344.745 575.306 316.86 567.75 289.048C567.52 290.04 566.87 291.359 566.082 292.003C565.305 286.676 565.305 286.676 564.569 285.529L567.666 322.381C568.711 334.087 566.436 345.695 566.666 357.38C566.75 361.878 567.771 366.334 567.25 370.858C565.88 382.801 565.85 383.063 566.479 383.941L566.522 384.001C569.509 383.367 569.509 383.367 571.221 383.928C568.986 391.567 559.99 411.07 553.293 418.505C549.031 423.024 534.658 438.735 530.456 448.995C529.412 451.566 519.33 472.186 508.476 482.567C503.936 486.913 497.789 488.968 493.184 493.228C489.165 496.943 486.924 502.062 483.162 505.986L466.506 519.273L453.333 528.549C450.047 530.787 440.043 537.602 431.54 534.966C433.417 530.693 434.412 529.67 436.216 527.813C438.884 525.07 439.363 524.575 455.958 495.029C460.228 487.44 460.755 478.394 465.37 470.938C470.329 462.929 477.52 456.436 481.28 447.605C489.445 428.414 487.456 419.67 485.997 413.292C485.068 409.25 485.068 409.25 491.095 395.086C493.265 389.994 493.265 389.994 491.521 384.71C488.885 383.886 485.825 384.896 483.476 382.852C481.078 380.775 482.832 377.068 480.382 375.016C480.047 374.735 479.526 374.361 479.086 374.317C465.493 372.856 452.673 377.854 439.397 379.105C436.721 379.359 422.61 365.878 420.733 361.954C416.261 352.605 411.023 343.617 407.261 333.935C404.74 327.471 412.706 324.824 412.607 319.237C412.497 312.59 407.986 306.859 408.593 300.054C408.593 300.036 423.267 274.572 425.262 271.368C425.938 270.271 431.47 265.982 434.687 264.427C438.266 262.699 438.266 262.699 438.96 249.399C439.025 248.176 438.698 246.362 439.389 245.346C441.703 241.922 446.405 241.979 448.916 238.827C450.929 236.293 449.369 232.724 451.427 230.206C451.775 229.776 452.38 229.334 452.809 228.965C452.809 228.965 452.832 228.965 453.437 229.386C456.801 233.416 457.854 233.201 460.954 232.578C461.171 232.578 461.38 232.588 462.587 232.69C473.523 236.479 482.432 224.42 493.438 228.711C493.946 227.86 494.807 226.849 495.514 226.166C504.001 228.117 504.001 228.117 506.038 226.561C507.557 227.381 508.07 227.656 510.586 229.313C511.549 241.799 511.549 241.799 510.287 243.804C509.753 244.65 509.067 246.202 509.578 247.061C511.238 249.813 534.415 270.896 536.598 272.499C537.033 272.323 537.601 272.09 538.038 271.915C539.392 268.315 537.839 264.254 539.805 260.746C550.356 260.919 549.429 275.609 559.535 276.347C560.121 275.742 561.286 275.284 562.116 275.258C563.09 278.237 563.587 278.897 566.627 279.143C568.941 273.439 568.763 270.187 567.624 249.048C566.787 248.718 565.763 248.012 565.14 247.367C565.051 248.292 564.771 249.517 564.451 250.384C561.852 248.807 561.111 245.671 558.872 243.796C558.888 244.247 558.912 244.846 558.927 245.299C558.608 245.621 558.184 246.053 557.864 246.375C550.982 240.584 549.618 230.195 548.887 224.611C548.463 224.493 547.905 224.328 547.484 224.202C547.445 223.195 547.529 221.838 547.678 220.838C549.5 219.927 551.78 220.802 553.469 219.362C552.848 218.773 552.251 217.717 552.06 216.882C552.956 217.086 554.136 217.422 555.011 217.717C555.61 217.081 556.066 215.901 556.126 215.031C563.488 213.102 563.25 223.158 567.787 226.203C568.185 225.985 568.721 225.687 569.104 225.47C569.452 214.324 560.878 207.049 557.079 197.702C557.341 197.325 557.689 196.815 557.948 196.44C556.744 191.741 556.744 191.741 555.922 190.432C556.152 190.005 556.461 189.442 556.694 189.02C556.016 187.214 555.616 186.442 553.27 186.939C551.715 191.379 559.569 196.754 554.301 199.794C553.071 198.069 552.408 195.985 550.982 194.374C551.497 191.392 551.497 191.392 551.031 189.473C549.424 188.51 548.872 188.096 547.489 186.486C547.678 186.086 547.932 185.541 548.12 185.14C547.356 184.787 546.099 184.716 545.303 184.996C543.95 195.893 551.741 205.326 550.283 216.241C549.817 216.272 549.18 216.306 548.701 216.338C548.392 217.223 547.879 218.364 547.421 219.184C546.479 215.699 541.981 213.018 539.834 212.56C538.656 213.45 538.656 213.45 541.065 225.438C541.808 229.13 543.274 232.677 543.285 236.513C543.285 237.45 543.201 238.709 543.075 239.641L536.03 223.501C529.42 204.467 529.42 204.467 529.336 204.336L507.104 178.216C506.284 178.527 505.329 179.341 504.858 180.082C514.659 200.126 517.576 201.42 521.252 203.056C521.149 203.512 521.005 204.114 520.893 204.561C528.723 213.968 528.723 213.968 529.21 216.351C528.603 215.552 527.818 214.476 527.226 213.665C526.781 213.78 526.192 213.937 525.755 214.05C525.707 215.882 525.707 215.882 527.16 220.951C526.027 222.812 525.537 224.985 524.309 226.805C523.88 226.747 523.301 226.666 522.862 226.614C522.364 229.248 524.016 231.795 523.178 234.447C523.137 234.421 517.222 229.295 515.309 226.054C525.074 224.713 525.867 224.598 524.147 218.979C521.867 211.534 498.742 184.97 498.53 184.795C494.32 181.161 492.082 184.263 489.39 189.044C486.435 189.031 483.974 184.826 480.814 187.455C480.073 188.062 480.073 188.062 479.973 196.859C473.151 199.543 473.02 199.595 470.381 210.494C472.855 214.398 471.7 220.192 467.127 220.765L450.552 226.266C450.487 226.166 450.487 226.166 449.316 221.385C446.285 220.694 444.811 220.812 437.737 221.362C437.915 220.595 437.915 220.595 438.855 212.222C435.44 211.216 434.283 185.144 434.253 183.85L434.252 183.803C433.577 183.064 432.794 181.962 432.294 181.09C442.421 182.119 452.228 185.161 462.407 185.889C462.53 185.693 465.959 163.74 444.109 157.671C444.484 157.402 444.992 157.046 445.366 156.776C444.444 155.964 443.23 154.891 442.319 154.09C442.507 153.663 442.771 153.095 442.965 152.668C446.609 152.765 446.609 152.765 448.871 154.213C449.858 153.972 451.141 153.503 452.078 153.105C452.222 152.645 452.421 152.032 452.563 151.579C451.955 150.752 451.209 149.61 450.707 148.712C452.738 150.199 453.487 150.757 458.15 150.987C458.569 150.079 458.833 148.736 458.862 147.738C459.953 147.387 461.333 146.709 462.27 146.065C460.535 141.8 460.535 141.8 460.514 141.575C462.799 140.73 462.799 140.73 466.841 140.824C467.077 140.41 467.389 139.863 467.622 139.447C465.996 134.941 465.538 132.48 465.289 131.153C466.611 129.851 466.611 129.851 471.454 129.993C471.724 129.616 472.083 129.118 472.352 128.741C473.271 128.595 474.499 128.393 475.413 128.233C476.714 127.985 476.758 127.935 476.981 127.694C476.934 127.566 476.853 127.291 475.099 125.272C470.779 120.285 464.695 109.655 464.346 108.663C463.53 106.346 468.273 106.375 468.478 106.377C470.132 106.561 472.363 112.794 472.31 114.271C472.156 117.847 475.099 122.015 477.601 124.88C481.002 128.781 481.282 128.767 482.495 128.707C486.058 128.529 488.047 130.022 488.788 130.582L484.379 129.809C486.895 130.325 489.309 131.003 491.197 132.1C491.584 131.865 492.09 131.556 492.464 131.325C492.524 130.44 492.524 130.44 501.671 131.082L501.737 131.09C501.637 130.956 501.501 130.776 501.402 130.647C501.658 130.027 501.755 129.349 502.028 128.739C502.415 128.637 502.415 128.637 504.394 128.817C504.585 127.309 501.941 123.908 501.407 123.241C501.004 122.738 497.1 115.562 497.061 115.504C497.174 115.342 497.307 115.122 497.407 114.96C500.899 114.685 501.122 119.397 504.358 119.518C501.797 114.407 497.1 111.03 493.812 106.508C496.826 106.898 499.588 108.155 502.48 108.99C502.122 108.427 501.716 107.901 501.41 107.304C501.561 107.213 501.755 107.095 501.894 107.003C502.69 107.307 503.407 107.781 504.274 107.901C499.284 103.335 491.752 104.034 486.796 99.4185C481.123 94.1326 481.123 94.1326 475.12 80.7358C475.305 80.7148 475.559 80.6913 475.751 80.6755C475.182 79.0733 467.446 73.9601 465.134 73.1878C465.04 73.3318 464.912 73.5255 464.82 73.6695C464.93 73.9104 465.064 74.2376 465.174 74.4733C465.357 74.845 465.357 74.845 471.588 81.3196C473.97 83.7963 471.3 87.0794 472.915 89.6844C477.149 96.5229 477.149 96.5229 480.267 98.5807C484.77 101.56 484.953 102.139 484.893 103.683C483.152 105.291 482.353 106.021 485.812 112.436C487.314 115.234 487.079 121.337 486.592 122.201C484.207 122.193 482.903 120.005 481.528 117.69C478.633 112.818 463.1 97.3738 462.386 96.8606C463.056 99.0808 464.446 103.686 461.658 104.979C452.987 108.993 443.594 87.0087 443.499 86.781C442.805 85.0949 442.777 84.6472 444.062 83.7178C447.583 81.2044 447.583 81.2044 448.455 74.811C448.487 74.557 448.665 72.1562 444.185 65.2759C444.133 65.1869 438.13 54.615 437.881 52.743C437.727 51.4968 437.727 51.4968 438.664 49.4468C438.166 48.2818 436.884 47.7294 436.402 46.5486ZM524.931 474.092C524.991 474.116 525.067 474.152 525.122 474.175C524.264 476.734 518.926 483.901 517.179 486.084C516.475 486.969 516.475 486.969 516.177 487.179C516.828 486.107 516.828 486.107 516.855 485.894C509.456 493.564 502.656 501.784 494.909 509.137C485.413 518.157 485.413 518.157 482.918 518.128C483.19 517.155 492.501 505.368 499.392 500.001C501.657 498.236 502.512 497.574 504.793 494.278C509.383 487.646 510.34 486.265 513.389 485.191C517.114 483.872 517.255 483.823 522.943 476.537C524.34 474.752 524.34 474.752 524.931 474.092ZM184.402 341.149C185.147 341.012 185.689 340.912 189.396 341.77C192.746 342.548 193.085 342.961 192.98 343.136C192.79 343.477 188.267 343.949 186.857 343.772C184.876 343.528 182.776 341.964 184.402 341.149ZM157.167 330.065C158.443 329.861 178.681 331.569 177.68 335.453C177.353 336.709 178.386 337.721 178.312 338.928C178.288 339.255 178.054 339.32 177.698 339.377C177.669 339.384 170.331 339.173 166.076 338.458C165.238 338.322 165.001 338.301 164.737 338.332C162.356 338.556 162.666 342.235 159.895 341.961C158.3 341.799 159.186 339.769 158.066 339.147C155.552 337.752 152.517 337.798 150.019 336.346C149.948 336.302 149.919 336.188 149.874 336.119C150.106 336.052 150.509 335.928 154.599 336.573C156.82 336.929 158.432 337.184 158.814 336.854C158.967 336.722 159.929 333.57 156.951 330.882C156.654 330.609 156.654 330.609 156.662 330.307C156.799 330.183 156.843 330.158 157.167 330.065ZM136.137 333.79C138.413 333.258 141.549 335.841 141.616 337.036C141.7 339.042 137.183 338.141 136.46 337.86C135.395 337.451 134.403 334.545 136.137 333.79ZM582.238 297.742C581.769 300.609 581.434 302.68 582.228 325.35C582.416 323.887 582.416 323.887 582.704 320.57C582.275 331.037 582.275 331.037 582.866 332.296C583.301 330.723 583.466 330.099 583.898 326.149C584.099 316.498 583.558 299.737 582.238 297.742ZM125.289 308.496C133.193 306.888 137.465 309.873 138.867 310.855C139.012 310.957 152.725 326.938 152.626 327.62C152.442 328.877 141.737 328.074 140.029 325.817C140.655 325.12 142.136 325.183 142.043 323.858C142.014 323.44 141.599 322.916 141.033 322.194C140.219 321.158 139.956 320.405 139.565 319.169C138.763 316.692 138.501 315.858 134.631 314.869C132.521 314.328 129.345 313.52 129.181 311.589C129.22 311.553 129.272 311.511 129.324 311.479C130.596 312.206 131.135 311.644 131.348 311.235C131.094 310.529 128.444 309.241 124.481 311.539C121.707 313.145 118.331 313.649 117.763 313.1C117.786 312.993 120.874 309.968 125.289 308.496ZM581.269 252.981C581.852 257.243 582.43 261.506 582.742 265.825C582.678 265.491 582.614 265.186 582.546 264.875C582.043 260.17 581.628 256.275 581.269 252.981ZM561.99 255.019C562.065 254.921 562.231 254.716 562.619 254.873C563.098 255.073 563.387 255.513 563.815 255.771C564.146 255.968 564.526 256.082 564.836 256.085C565.321 256.088 565.734 255.782 566.215 255.782C566.318 255.814 566.408 255.842 566.408 256.225C566.408 256.288 566.408 256.38 566.402 256.443C566.402 256.48 566.062 260.034 565.806 260.28C565.655 260.426 564.002 260.131 564.002 260.131C563.833 260.085 563.502 259.954 563.152 259.562C562.023 258.324 561.535 255.573 561.99 255.019ZM545.03 247.477C545.154 247.471 545.154 247.471 546.568 248.04C547.362 248.361 548.215 248.337 549.029 248.544C549.196 248.601 549.666 248.755 550.112 249.28C550.112 249.286 552.603 252.707 552.623 252.737C552.646 252.761 552.628 252.815 552.646 252.853C552.603 252.872 552.558 252.904 552.507 252.92C551.012 253.451 545.425 250.343 544.59 248.811C544.203 248.089 544.388 247.517 545.03 247.477ZM571.913 216.282C572.452 217.979 573.025 219.779 573.642 221.703C577.033 234.107 577.878 237.168 580.17 252.063C579.39 248.082 578.604 244.098 578.076 240.075C578.109 240.174 578.135 240.295 578.161 240.406L576.663 233.62C576.582 233.239 576.455 232.74 576.362 232.359C576.587 233.366 576.816 234.364 577.028 235.373C575.545 228.956 575.434 228.459 571.913 216.282ZM566.408 200.684C566.538 200.855 566.641 201.091 567.078 202.228L567.034 202.093L570.243 211.424L570.101 211.037C570.373 212.309 570.861 213.517 571.277 214.745L571.45 215.272C571.287 214.911 571.144 214.537 571.005 214.159C571.336 215.259 571.633 216.258 571.913 217.199C569.516 209.928 567.808 204.762 566.408 200.684ZM503.294 203.437C503.925 203.505 504.564 203.713 504.823 205.483C504.99 206.604 504.917 207.74 505.074 208.866C505.231 209.912 505.629 210.908 505.784 211.956C505.815 212.234 505.86 212.611 505.854 212.892C505.784 215.409 502.626 216.418 502.006 216.267C501.773 216.207 501.239 216.075 501.024 215.32C500.765 214.397 501.134 213.451 500.935 212.522C500.723 211.501 499.587 211.779 499.053 211.204C498.289 210.385 498.422 206.958 498.935 206.009C499.812 204.394 502.278 203.466 503.294 203.437ZM478.588 209.346C477.443 208.235 480.378 207.911 482.211 208.058C483.902 208.219 484.866 208.607 484.742 209.069C484.736 209.131 483.372 210.427 483.355 210.434C483.118 210.628 482.952 210.759 482.611 210.775C481.624 210.818 479.222 209.962 478.588 209.346ZM499.664 190.592C500.063 190.89 500.702 194.137 500.708 194.167C501.104 196.308 501.526 200.431 501.068 200.684C500.939 200.623 499.218 198.29 498.937 197.91L498.898 197.858C498.73 197.617 498.556 197.229 498.53 197.041C498.457 196.516 498.663 196.308 498.877 196.082C499.187 195.771 499.602 195.347 499.602 194.204C499.602 193.173 499.292 192.172 499.453 191.136C499.458 191.077 499.473 190.992 499.488 190.93C499.527 190.724 499.589 190.637 499.63 190.6C499.63 190.6 499.651 190.597 499.664 190.592ZM11.9086 174.087C12.5177 173.976 12.139 174.934 12.1106 174.976C12.0569 175.097 12.0001 175.262 11.9401 175.381C11.4415 176.448 10.8166 177.477 10.2864 178.537C9.40584 180.308 8.87247 182.172 7.91618 183.923C7.87831 184.004 7.79625 184.111 7.71104 184.17C7.31338 183.669 9.5952 175.484 11.6088 174.203C11.6877 174.161 11.8107 174.101 11.9086 174.087ZM233.861 138.3C233.971 138.281 234.117 138.334 234.218 138.369C234.476 139.174 233.621 140.881 231.684 143.439C231.257 143.993 230.644 144.695 230.326 145.31C230.107 145.754 230.107 145.909 230.553 146.147C231.408 146.593 231.95 146.983 232.563 149.224C232.881 150.412 233.186 150.705 234.591 150.399C239.198 149.383 239.198 149.383 240.504 150.808C243.014 153.548 245.522 158.726 245.275 162.06C245.116 164.134 243.562 166.583 242.308 166.734C242.068 166.76 241.664 166.678 241.622 165.818C241.578 165.024 241.515 163.823 240.9 163.165C239.659 161.851 238.343 163.134 237.07 163.057C236.664 163.028 236.137 162.838 235.738 162.73C232.245 161.764 228.95 161.363 224.468 160.996C216.629 160.355 216.629 160.355 216.29 160.175C216.073 160.067 215.672 159.864 216.175 159.151C217.473 157.303 219.384 156.055 220.771 154.284C223.363 150.966 225.161 147.094 227.802 143.806C229.987 141.092 232.803 138.659 233.861 138.3ZM198.918 152.102C200.739 151.749 209.17 153.594 208.561 155.205C208.546 155.238 206.811 158.248 201.82 155.469C201.046 155.031 197.255 152.839 198.918 152.102ZM421.259 94.2573C423.567 94.3965 420.752 97.5144 420.794 99.1719C420.815 100.002 421.392 99.931 424.546 99.5133C425.222 99.424 426.245 99.2901 427.154 99.3268C432.148 99.5238 429.707 107.761 427.861 109.426C427.861 109.426 427.872 109.426 427.882 109.432C429.344 109.495 432.255 109.918 435.428 111.953C437.263 113.13 438.346 115.029 439.85 116.526C442.986 119.65 447.296 120.973 450.732 123.655C451.51 124.27 451.761 124.638 451.896 124.84C451.904 124.864 451.92 124.895 451.925 124.919C452.022 125.436 450.651 124.95 449.643 124.596C447.432 124.102 447.432 124.102 447.257 124.157C447.223 124.21 447.192 124.28 447.171 124.338C447.171 124.38 449.1 128.362 451.933 128.213C453.178 128.147 454.724 128.071 456.22 132.021C457.053 134.23 455.011 136.256 455.797 138.467C457.45 139.063 459.384 137.719 460.898 139.234C460.875 139.308 460.872 139.418 460.82 139.481L453.518 141.969C453.473 141.987 453.403 141.987 453.364 141.995C449.113 142.615 444.813 142.279 440.558 142.812C432.148 143.878 432.148 143.878 431.564 143.734C431.551 143.629 431.532 143.479 431.519 143.371C432.566 142.244 433.966 141.533 434.992 140.369C435.819 139.431 435.968 138.084 436.911 137.222C437.414 136.757 437.809 136.395 439.109 136.413C440.451 136.439 441.333 136.455 441.237 135.286C441.135 134.01 437.245 134.12 435.378 134.17C430.974 134.291 430.162 133.35 430.021 133.056C429.746 132.502 430.493 132.14 430.981 131.906C432.819 131.015 434.107 130.277 433.822 128.898C433.287 126.327 430.621 125.171 429.804 122.788L429.84 122.884L429.011 122.82C428.959 122.631 428.927 122.519 429.067 122.478L429.128 122.466C429.333 122.466 429.6 122.554 430.193 122.819C431.846 122.953 431.892 122.974 432.553 123.288C434.232 124.089 436.522 125.184 436.059 123.298C435.198 121.465 433.48 120.28 432.509 118.536C432.19 117.971 432.519 117.37 432.41 116.794C431.739 116.329 431.279 116.209 427.65 115.252C425.342 114.635 423.512 114.149 421.958 110.572C421.191 108.809 423.786 106.38 421.546 105.137C421.006 104.832 420.324 105.36 419.517 105.97C417.343 107.627 416.304 107.748 415.813 107.559C415.178 105.92 416.408 104.415 416.152 102.802C415.844 100.853 414.497 99.2717 414.199 97.3148C414.157 97.0968 414.056 96.7868 414.139 96.5767C415.002 94.4708 420.66 94.2717 421.215 94.2582L421.259 94.2573ZM412.881 111.689C412.976 111.689 412.994 111.7 413.084 111.798C413.199 111.935 413.457 112.217 414.183 112.571C415.185 113.052 416.274 113.3 417.268 113.801C417.637 113.984 418.115 114.255 418.445 114.496C419.114 114.968 419.968 115.781 420.264 116.946C420.557 118.131 420.173 119.079 419.94 119.646C419.392 120.972 419.447 121.428 420.264 122.704C420.754 123.456 421.228 124.169 421.621 125.32C422.392 127.582 422.562 129.056 422.137 129.689C421.373 130.811 420.056 130.434 419.074 130.951C418.228 131.4 417.504 132.026 416.708 132.561C413.565 134.684 409.26 135.18 408.326 134.003C407.785 133.301 407.69 132.482 407.963 130.764C407.968 130.727 408.752 126.452 409.844 124.214C409.886 124.137 409.929 124.034 409.949 123.955C409.092 123.717 408.168 123.892 407.347 123.456C406.288 122.902 406.06 122.281 405.892 121.83C405.704 120.586 406.182 119.765 406.618 119.298C407.242 118.63 407.88 117.944 410.582 116.552C410.76 116.457 411.023 116.333 411.173 116.177C410.597 116.127 410.447 116.04 410.194 115.887C406.092 113.477 412.608 111.763 412.881 111.689ZM146.863 93.4036C148.228 93.1437 148.16 93.7278 147.862 94.2652C146.931 95.9242 141.805 99.4728 140.956 98.7485C140.51 98.3688 140.633 96.3623 141.422 95.6438C142.749 94.4375 146.821 93.4095 146.863 93.4036ZM155.261 94.3064C155.809 94.2114 156.501 94.1787 156.239 94.9419C155.878 96.0051 152.906 99.5511 152.029 98.7196C151.662 98.3899 151.454 96.7595 152.299 95.6012C152.892 94.7964 155.231 94.3153 155.261 94.3064ZM143.807 80.5174C143.887 80.492 144.013 80.4819 144.083 80.5225C144.715 80.8805 144.726 81.7083 145.355 82.0713C146.333 82.6401 147.549 82.5385 148.53 83.1124C148.693 83.2063 148.908 83.3358 149.055 83.4475C150.041 84.1889 150.488 85.3442 151.329 86.1923C151.817 86.6848 152.497 86.9438 153.012 87.4034C153.314 87.6675 153.727 88.513 153.456 89.0259C153.328 89.2569 153.011 89.422 152.91 89.4575C150.836 90.1456 148.808 89.0868 146.756 89.3052C143.711 89.6251 141.118 91.702 139.566 92.9411C138.49 93.7993 137.959 94.2081 137.697 94.2513C137.509 94.2767 137.509 94.2767 137.322 93.0833C137.158 92.1438 137.158 92.1438 135.195 91.994L138.508 86.9083C138.867 86.3649 139.358 85.6489 139.751 85.1233C139.877 84.9583 142.907 80.9186 143.807 80.5174ZM267.434 0.774351C270.301 0.635969 277.497 0.651635 280.769 0.761296C283.1 0.844847 285.152 2.43232 287.575 1.99629C288.252 1.87357 291.791 1.26521 294.588 1.42709C294.632 1.42971 298.819 1.69603 300.27 1.89185C300.144 1.92318 299.961 1.97018 299.823 2.00673C299.737 2.27566 299.635 2.64903 299.588 2.93102C299.917 3.07984 300.359 3.30439 300.691 3.47149C302.264 9.46368 308.824 6.96497 312.05 10.1243C311.888 10.1895 311.655 10.2731 311.483 10.3384C311.422 10.4767 311.352 10.6595 311.292 10.7979C312.235 12.2626 312.332 12.4167 323.385 18.9389C326.773 20.9311 327.912 21.6073 326.268 23.2784C325.079 24.4768 324.64 25.0486 325.617 27.1609C326.459 28.9703 326.417 31.093 327.633 32.7666C329.538 35.3933 332.552 36.8711 334.53 39.422C335.881 41.174 334.792 41.9677 334.744 42.0017C332.546 43.5526 329.956 44.3385 327.58 45.563C321.783 48.5474 315.095 48.9651 309.282 51.9051C306.888 53.1244 306.681 54.5579 306.334 57.1584C305.981 59.678 305.981 59.678 292.667 63.7067C288.438 64.9913 288.362 65.0148 287.672 66.1532C286.378 68.3569 287.575 70.759 287.136 73.0305C287.107 73.1846 284.057 88.6154 282.267 90.6154C281.187 91.8269 280.829 92.2316 263.924 88.9888C257.162 86.7094 243.056 62.8425 242.708 61.7354C241.966 59.3882 242.931 55.3881 243.921 53.9338C245.704 51.2863 249.324 51.3881 251.31 49.0356C251.347 49.0017 253.584 45.1061 248.738 42.9547C245.902 41.6883 243.989 44.1662 241.608 44.7223C240.821 43.3515 241.407 41.7406 240.829 40.3333C240.45 39.4116 239.143 39.328 238.942 38.2445C238.887 37.9599 238.885 37.8815 239.99 35.8241C242.714 30.7562 234.321 21.4324 234.23 21.3541C232.954 20.2548 232.724 20.0564 214.666 21.3776C214.577 21.388 207.293 20.1374 210.191 16.2496C210.641 15.6386 221.137 12.6021 221.237 12.576C223.307 12.0146 227.167 10.9728 228.644 9.16081C226.71 9.16342 226.71 9.16342 226.239 8.90754C226.336 8.86315 236.012 4.52371 249.491 3.0224C251.31 2.85008 251.885 2.85791 253.422 2.87358C257.173 2.93624 257.173 2.93624 257.455 2.90491C256.449 2.65164 256.449 2.65164 253.087 2.40099C253.027 2.39316 252.964 2.38793 252.91 2.37488C252.891 2.37227 252.865 2.38532 252.86 2.35921C252.891 2.29133 252.964 2.33571 253.017 2.32788H253.027C255.779 1.80046 255.779 1.80046 261.522 1.48454L261.545 1.48193C262.154 1.072 262.154 1.072 267.434 0.774351ZM167.601 38.8452C168.746 38.6334 172.6 37.9825 173.834 38.4661C174.012 42.8867 174.23 43.3938 174.429 43.8827C174.908 43.9114 174.937 43.9167 177.977 42.7743C178.817 42.4588 179.744 42.1107 180.684 41.7763C179.246 42.0321 177.858 42.0756 177.104 41.5601C176.491 41.1404 175.67 39.6628 178.294 39.2945C181.298 38.9112 185.353 39.9155 185.656 40.3031C185.64 40.3138 185.62 40.3352 185.597 40.3459C185.594 40.347 185.582 40.3518 185.562 40.36C186.111 40.2661 186.596 40.2257 186.987 40.2568C189.065 40.4215 188.879 42.8762 190.394 43.616C191.822 44.3166 193.391 43.8696 194.861 44.1049C198.186 44.6408 205.038 51.1161 205.2 52.5069C205.263 53.0428 204.239 53.4977 202.184 54.4048C197.502 56.4804 196.976 56.8778 196.431 57.3091L215.927 61.7193C215.956 62.046 215.862 62.4826 215.765 62.7937C215.723 62.8983 211.743 73.057 209.073 73.5589C208.114 73.7393 207.058 72.3747 206.041 71.0545C205.997 70.997 201.736 65.6431 199.803 65.8052C199.74 65.8078 193.53 67.7737 194.817 71.4153C196.376 75.8463 201.466 75.4725 204.205 78.3115C205.462 79.6186 202.845 85.5188 201.275 86.0024C201.008 86.0808 200.62 85.8168 200.078 85.4482C197.3 83.5686 195.757 82.9464 190.871 82.421C197.135 88.2427 197.135 88.2428 197.505 88.4205C198.238 88.7813 198.238 88.7813 198.354 89.21C195.477 90.802 181.391 87.8768 179.572 86.2743C182.895 85.0351 182.895 85.0351 183.56 84.3319C175.322 80.7191 175.322 80.7191 170.69 82.285C164.624 84.3319 162.586 84.0836 161.954 83.5137C161.538 83.1477 161.582 80.7165 163.031 79.9479C166.306 78.2069 170.053 78.4056 173.504 77.3756C185.038 73.9275 185.876 65.6693 185.876 65.5909C185.837 61.9075 181.97 62.1271 180.288 60.1194C178.957 58.5273 178.351 56.4647 176.926 54.9407C176.91 54.9198 174.235 52.6114 173.226 52.0808C172.812 52.7448 172.199 53.7538 168.049 54.2035C163.152 54.7394 163.296 55.3537 163.521 56.2922C162.012 57.0216 150.787 59.309 147.53 57.0895C144.239 54.8518 161.734 40.2254 167.601 38.8452ZM122.207 52.9709C122.241 53.0632 122.294 53.1838 122.33 53.2786C122.641 53.3786 122.967 53.4222 123.265 53.5787C123.409 54.2069 117.019 61.9102 116.293 62.7872C115.462 63.7822 116.112 65.4772 117.666 66.3414C117.912 67.5518 116.413 68.8955 116.397 68.9058C116.136 69.093 115.995 69.1391 115.287 69.1032C113.305 69.0083 110.414 71.1598 110.112 72.1137C112.861 70.6598 112.861 70.6598 113.167 70.7187C113.151 70.747 113.13 70.77 113.031 70.8829C110.138 74.0575 110.138 74.0575 107.179 75.0371C107.158 75.0397 104.014 74.3678 103.609 73.9857C103.661 73.8319 103.661 73.8319 104.051 73.101C103.996 73.0703 103.923 73.0267 103.876 72.9933C103.027 73.3036 102.403 73.8011 100.891 74.9986C96.185 78.7169 87.8835 82.3429 86.865 82.3301C87.3873 81.3813 88.4005 80.7761 88.7896 79.7324C88.7478 79.6888 88.7034 79.6298 88.6616 79.5837C87.8077 79.5401 87.1209 80.312 86.2278 80.0991C84.8072 79.7581 85.5776 76.3116 93.5162 73.9652C94.7174 73.6062 97.5534 72.7702 99.6686 71.1624C98.4778 71.4188 97.2923 70.9085 96.1093 71.1624C94.4328 71.5291 93.0566 72.6343 91.3801 72.96C91.213 72.9933 90.9753 72.9651 90.8239 72.8882C90.8108 72.4625 90.944 72.1112 93.968 70.3161C95.7646 69.2468 95.7777 69.2263 96.0727 68.7442C95.903 68.6314 95.6654 68.5083 95.48 68.4365C95.374 67.9086 96.6124 66.7024 98.4431 65.2596L97.7111 65.7925C97.6153 65.8622 97.4584 65.9239 97.3414 65.9373C97.3122 65.9051 97.2643 65.8569 97.235 65.822C93.722 68.5607 90.8367 72.1201 86.72 74.0729C86.6801 74.0541 86.6136 74.0246 86.5684 74.0058C87.797 71.4093 88.9831 70.4222 90.483 69.1776C107.678 54.9263 107.678 54.9263 111.577 53.274C111.689 53.2284 111.838 53.1909 111.952 53.156C111.984 53.1801 112.034 53.2096 112.074 53.2257C111.952 53.789 111.952 53.789 111.151 54.4945C112.101 53.9795 112.912 53.2043 114.016 52.9709C114.034 53.0272 114.069 53.105 114.093 53.1614C113.17 54.9049 113.17 54.9049 112.449 55.4413C109.322 57.7374 105.913 59.5909 102.743 61.8173C101.329 62.8154 100.064 64.0015 98.6982 65.0643C103.13 61.6159 110.659 56.9692 111.464 56.8892C110.161 58.2663 108.265 58.9638 107.124 60.5229C108.981 59.828 110.422 58.3483 112.349 57.7765C112.389 57.8201 112.451 57.8791 112.496 57.9227C112.154 58.615 111.454 59.0074 111.054 59.6382C112.506 59.3305 113.634 58.3176 114.99 57.8201C115.071 57.8765 115.178 57.9509 115.253 58.0022C114.83 59.0048 113.365 59.4536 113.697 60.8486C117.154 58.9151 119.176 55.484 122.134 53.0273C122.155 53.0119 122.189 52.9889 122.207 52.9709ZM123.587 66.7331C123.723 66.7355 124.733 67.2227 125.234 68.0571C125.237 68.072 126.365 70.1055 125.913 70.6351C125.903 70.6476 124.214 72.2689 120.156 73.0058C119.51 73.1233 118.86 73.1857 118.734 73.1407C118.32 73.0008 118.395 72.5112 118.084 72.3064C117.917 72.1915 117.804 72.184 116.909 72.3638C116.339 72.4837 116.169 72.5187 115.989 72.4962C115.969 72.4887 115.946 72.4637 115.928 72.4488C116.036 72.1115 116.745 71.6868 119.097 70.2904C120.513 69.446 121.487 68.127 122.782 67.1477C123.111 66.8929 123.296 66.8105 123.453 66.753C123.492 66.743 123.543 66.7331 123.587 66.7331ZM363.786 56.6447C365.274 56.5619 366.184 57.8251 367.424 58.3405C369.161 59.0642 371.053 58.6236 372.821 59.1203C373.024 59.1791 373.283 59.2805 373.485 59.358C374.662 59.8414 375.663 61.0298 376.005 61.6654C376.039 61.7668 376.013 61.9111 376.013 62.0206C375.531 61.9938 375.531 61.9938 375.347 62.1728C375.588 62.9926 376.296 63.5561 376.48 64.4027C376.78 65.7033 370.825 70.1471 366.921 71.1325C362.606 72.2168 361.842 72.2275 361.292 72.2355C361.09 72.2435 360.841 72.2301 360.649 72.2194C359.096 72.1206 357.644 71.4103 356.091 71.3008C355.409 71.2527 354.678 71.3114 352.544 71.5411C349.288 71.8963 348.961 71.7548 348.58 71.4209C348.57 69.9334 348.565 69.3139 346.923 68.8438C345.365 68.3872 343.522 69.8747 342.137 68.1228C345.37 65.3721 339.573 63.3051 337.735 63.6469C336.688 63.8445 334.826 64.1169 334.287 63.719C335.22 62.301 337.525 62.6214 337.992 60.6185C337.261 59.6117 335.63 59.9081 335.161 58.5248C336.812 57.1681 342.726 58.8613 344.123 61.5906C344.74 62.7923 348.466 65.9489 348.953 66.1492C350.551 64.8273 349.241 63.0941 349.568 61.5906C349.7 61.5051 349.879 61.3903 350.009 61.3048C350.885 60.7841 351.787 61.7668 352.664 61.2434C353.48 60.7547 352.728 59.4328 353.765 59.0722C355.394 58.5061 357.133 58.6102 358.78 58.207C360.48 57.7984 362.083 57.0693 363.786 56.6447ZM176.948 64.0121C178.342 63.7966 178.674 64.6895 177.928 66.6517C177.902 66.7105 175.665 72.2528 173.965 71.1835C173.27 70.7524 171.524 68.0093 171.964 66.9512C172.736 65.115 176.909 64.0233 176.948 64.0121ZM143.517 44.7538C144.141 44.6592 144.256 44.7511 144.369 44.8296C144.354 44.9702 142.332 46.7767 142.317 46.7902C140.713 47.9287 138.917 48.7075 137.315 49.8433C138.129 49.6405 138.886 49.197 139.748 49.1673C140.531 49.1402 139.337 51.6471 138.929 52.0852C137.059 54.062 130.21 58.2943 129.445 57.4478C129.391 57.3937 129.363 57.2828 129.348 57.2098C129.284 56.7285 129.561 56.3093 129.561 55.8415C129.571 55.5791 129.417 55.3601 129.368 55.1113C129.255 54.4785 128.937 53.9187 128.781 53.3048C128.755 53.2237 128.794 53.1047 128.822 53.029C129.117 52.2961 131.629 50.8818 132.14 50.8007C132.117 51.5227 131.157 51.8012 131.362 52.6288C131.529 52.6423 131.567 52.645 131.87 52.4773C132.596 52.0663 135.301 49.9488 135.486 49.6432C135.591 49.4728 135.737 49.2403 135.239 48.8779C134.921 48.648 134.557 48.8292 134.226 48.7183C134.223 48.694 134.21 48.6561 134.205 48.6237C134.765 47.807 138.837 45.7625 140.094 45.4705C141.118 45.2433 142.147 45.0351 143.166 44.8187C143.269 44.7944 143.407 44.7701 143.517 44.7538ZM130.332 49.3013L130.371 49.3035C130.878 49.351 130.578 49.848 129.372 50.9877C129.084 51.2537 126.558 53.5964 125.702 53.8687C125.18 54.0301 125.567 53.1564 125.72 52.8303C125.973 52.2889 125.955 52.2604 125.898 52.0736C125.648 51.9628 125.393 52.099 125.141 52.0958C125.129 52.0863 125.117 52.0736 125.102 52.061C125.198 51.8172 127.017 50.1551 129.558 49.4364C130.038 49.3066 130.266 49.294 130.371 49.3035L130.332 49.3013ZM245.16 45.6688C246.171 45.532 246.54 45.8114 246.54 45.8114C246.57 45.8399 246.585 45.8969 246.585 45.9396C246.585 46.0879 246.598 46.3444 246.787 46.6095C247.092 47.037 247.612 47.1938 247.864 47.6755C247.988 47.895 248.114 48.1459 247.998 48.5364C247.811 49.1464 247.065 49.5198 247.065 49.5198L244.198 50.164C243.401 50.335 242.644 50.0756 242.207 49.7735C240.206 48.391 243.873 45.9795 245.16 45.6688ZM143.452 35.5389C141.729 37.4417 139.659 38.9282 137.887 40.775C139.317 39.9076 140.556 38.7254 141.99 37.8714C141.997 37.8607 142.758 37.4203 143.414 37.4684C143.313 37.6525 143.249 37.7646 142.342 38.4318C142.299 38.4638 137.616 41.9038 136.375 42.587C134.811 43.441 133.109 43.9107 131.474 44.5673C131.464 44.5753 128.874 45.7468 123.814 48.7385C122.542 49.4884 121.232 50.257 120.829 50.217C120.355 50.1609 120.366 49.6379 121.219 49.2349C123.629 48.1087 127.894 45.7495 129.211 44.8048C127.759 45.3465 127.053 45.7495 126.675 45.9683C125.266 46.769 125.228 46.769 125.084 46.769C125.9 46.0858 126.974 45.7468 127.552 44.7381C125.779 45.7726 124.554 46.4876 123.705 46.9807C121.812 48.3808 121.621 48.3814 121.432 48.3835C121.469 48.3268 121.596 48.2124 121.791 48.0557C121.769 48.0616 121.762 48.0575 121.754 48.0526C121.855 46.3019 133.838 40.1985 133.955 40.1772C134.811 41.1779 132.739 41.5969 132.125 42.2988C132.098 42.3388 132.052 42.3869 132.014 42.4242C131.895 42.5497 131.768 42.6804 131.667 42.8246C131.7 42.8566 131.738 42.8966 131.763 42.9313C136.24 41.8318 137.031 40.2465 137.16 39.6167C137.343 38.7601 143.201 35.5949 143.259 35.5602C143.318 35.5549 143.391 35.5469 143.452 35.5389ZM140.629 35.5389L140.699 35.55C140.397 35.9526 140.094 36.1373 139.888 36.2586L129.631 42.3738C129.781 42.2056 129.781 42.2056 132.805 40.2095C129.816 41.7452 127.226 44.0087 124.174 45.4396C124.224 45.3983 124.295 45.3321 124.337 45.2797C123.028 45.9469 122.059 47.2593 120.515 47.4661C123.61 44.8083 138.126 36.6446 140.315 35.619C140.426 35.5721 140.591 35.5142 140.699 35.55L140.629 35.5389ZM142.432 41.2337C142.722 41.2576 142.346 41.4631 141.944 41.6301C140.844 42.0833 138.215 42.6852 137.966 42.6907C137.96 42.6834 137.947 42.676 137.947 42.6687C138.049 42.5861 139.671 41.887 141.064 41.487C141.064 41.487 141.533 41.3549 142.062 41.2668C142.186 41.2484 142.314 41.2246 142.432 41.2337ZM159.487 32.8278C159.752 32.7735 159.752 32.7735 159.966 32.8229C159.861 32.9958 159.81 33.0353 159.114 33.5687C155.877 36.0653 155.877 36.0653 154.645 37.1593C154.664 37.1395 154.68 37.1148 154.685 37.0926C154.78 36.8506 154.714 36.7444 154.696 36.7098C152.018 38.8879 152.018 38.8879 151.61 39.0978C151.009 39.4065 146.263 41.0487 146.244 41.0437C146.239 41.0314 146.22 41.0067 146.204 40.9894C146.48 40.1745 150.01 38.352 151.337 37.668C147.31 38.9022 147.139 38.9547 146.911 38.8919L146.88 38.8829C146.856 38.8163 146.856 38.8163 147.049 38.4656C146.813 38.3248 146.583 38.5693 146.363 38.4607C147.812 37.6951 149.56 37.5247 150.874 36.4925C150.882 36.4653 150.882 36.416 150.882 36.3814C150.755 36.3863 150.625 36.3987 150.5 36.3962C151.645 35.2973 152.746 35.1862 152.858 35.243C152.858 35.4208 152.752 35.5714 152.693 35.7294C152.556 36.0406 152.378 36.4555 152.243 36.7642C153.597 35.7862 153.65 35.7467 154.044 35.3245C154.32 35.0207 154.479 34.638 154.73 34.307C154.751 34.2725 154.802 34.2428 154.847 34.2206C155.268 33.991 159.453 32.8328 159.487 32.8278ZM159.735 35.5391C160.642 35.6253 158.659 37.6817 157.694 38.5221C156.006 39.9774 154.031 40.4254 153.25 39.9356C152.337 39.3624 152.541 39.2177 153.132 38.7948C153.399 38.6111 157.785 36.0316 159.361 35.5947C159.471 35.5669 159.627 35.5363 159.735 35.5391ZM138.843 37.8117C138.848 37.8136 138.856 37.8172 138.865 37.8227C138.808 37.8778 138.494 38.0172 138.312 38.0925C137.405 38.4796 136.278 38.8485 136.112 38.7567C136.134 38.6319 138.29 37.9457 138.709 37.8374C138.752 37.8246 138.797 37.8154 138.843 37.8117ZM150.556 34.6214L150.604 34.625C150.885 34.6773 151.041 35.02 149.633 35.9697C147.068 37.6989 146.226 37.3484 146.216 37.3379C146.17 37.3013 146.272 37.1992 146.375 37.1208C146.38 37.1051 148.155 35.6688 148.306 35.5642C148.473 35.4543 149.482 34.9573 150.162 34.7114C150.38 34.6459 150.515 34.6093 150.604 34.625L150.556 34.6214ZM185.734 28.1997C185.774 28.2022 189.586 28.4148 188.039 29.8753C182.339 35.2639 160.828 37.3723 160.637 37.3723C160.037 37.3825 159.278 37.3977 161.165 35.3424C162.132 34.292 163.605 33.9427 164.654 33.0087C164.747 32.9227 166.456 30.8345 165.925 30.503C165.644 30.3283 164.319 30.7662 163.353 31.0876C162.501 31.361 162.469 31.361 162.031 31.3737C162.015 30.9662 163.701 29.283 164.234 29.0754C164.879 28.9185 165.901 28.7894 166.204 28.7565C167.218 28.6553 168.203 29.0172 169.222 28.9008C170.096 28.7995 170.871 28.2857 171.779 28.3288C172.156 28.349 173.879 29.4019 170.398 30.3384C169.737 30.5181 169.445 30.6093 169.281 30.7915C168.901 31.2015 170.3 32.7885 172.087 32.1001C174.091 31.3281 183.754 28.1491 185.734 28.1997ZM152.627 30.034C152.569 30.0854 152.475 30.1419 152.405 30.1805C152.007 30.3911 151.266 30.7097 150.725 30.9434C149.145 31.6268 149.097 31.6628 149.027 31.7527C149.027 31.7527 149.06 31.7655 149.08 31.7706C149.06 31.8529 149.019 31.9325 149.032 32.0198C148.76 32.2356 143.815 34.6967 143.452 34.6196C144.064 34.0647 147.664 31.6294 152.292 30.1008C152.387 30.07 152.526 30.0469 152.627 30.034ZM156.159 30.1138C156.263 30.09 156.279 30.0955 156.297 30.1083C156.292 30.123 156.292 30.1524 156.146 30.2588L155.386 30.7964C155.251 30.8974 155.136 31.0203 154.991 31.1176C154.921 31.1744 154.831 31.2203 154.748 31.2644C154.741 31.2699 153.661 31.7965 153.544 31.8057C153.916 31.3836 153.916 31.3836 153.776 31.3286C153.776 31.3212 153.774 31.3194 153.774 31.3121C153.864 31.213 155.32 30.3359 156.159 30.1138ZM157.879 26.4234C158.057 26.3535 158.057 26.3535 158.131 26.3821C157.958 26.5599 156.834 27.3188 156.824 27.3283C155.836 27.992 155.222 28.3191 155.16 28.3508C154.477 28.7192 154.477 28.7192 153.801 28.9161C153.147 29.1034 152.6 29.5765 151.996 29.8941L149.874 30.9515C153.682 28.3508 157.837 26.4392 157.879 26.4234ZM237.034 4.34471C233.817 5.17003 230.517 5.65059 227.305 6.50725C228.565 6.42107 228.771 6.39234 232.119 5.91438C231.456 6.10765 218.52 10.1376 218.457 10.1611C219.459 9.98091 219.459 9.98091 219.918 10.0149C218.133 11.1954 215.516 11.8849 209.776 13.3814C209.875 13.418 210.003 13.4598 210.095 13.4937C210.042 14.0187 207.869 16.3432 201.672 17.8371C200.634 18.0879 196.047 20.9974 195.527 21.7234C195.765 21.7757 196.078 21.8514 196.31 21.9193C196.939 23.6326 190.004 27.0044 187.836 26.5709C188.519 26.0538 188.519 26.0538 188.757 25.4766C185.498 24.7609 182.87 26.8634 179.904 27.4537C175.888 28.2424 175.45 28.2189 174.837 28.1876C174.774 28.104 174.698 27.9995 174.646 27.9133C176.59 25.9989 179.437 25.8448 181.631 24.4005C181.727 23.6953 181.952 22.2327 185.806 22.1361C186.194 22.5723 186.789 23.233 191.877 20.4593C188.924 21.5537 188.582 21.5928 187.692 21.7078C187.713 21.6164 187.762 21.4962 187.786 21.4074C187.204 21.047 186.484 21.1619 185.879 20.8903C186.145 20.6604 193.056 16.6514 195.718 17.4558C196.574 16.6749 197.056 14.9642 197.056 14.6194C197.513 14.2694 197.865 13.9874 199.037 13.7393C204.073 12.6736 208.79 11.1066 214.757 9.11903C213.322 9.52907 204.406 11.9789 201.643 12.6266C202.52 12.3054 203.397 11.9998 204.245 11.6472C199.789 12.8211 199.479 12.8148 198.978 12.5824L198.912 12.5509C200.01 11.2215 210.723 8.61234 211.639 8.72726C212.949 8.88919 213.395 8.75077 213.914 8.59145C213.737 8.51571 213.52 8.34333 213.413 8.18662C216.101 7.14975 228.565 5.01854 228.693 5.00287C228.735 4.99504 233.919 4.35254 237.034 4.34471ZM170.744 21.8306C170.913 21.7676 170.913 21.7676 170.976 21.7916C170.618 22.3293 169.919 22.2902 169.631 22.951C169.952 22.957 170.217 22.6146 170.555 22.7468C170.555 23.2664 168.039 25.8677 167.256 26.3633C167.105 26.4624 164.942 27.4987 164.778 27.2404C164.887 26.6907 165.505 26.7117 165.624 26.171C165.624 26.168 164.364 26.0449 163.092 26.5375C162.974 26.5796 162.85 26.6306 162.719 26.6456C163.007 26.3903 164.354 25.7205 165.172 25.354C166.368 24.8224 166.63 24.6481 166.562 24.4229C166.068 24.3718 165.624 24.8073 165.119 24.6361C165.49 24.3418 168.483 22.7077 170.744 21.8306ZM173.491 21.8708C173.749 21.7776 173.842 21.7403 174.045 21.8211C174.17 21.8646 174.219 21.9578 174.219 21.9578C174.235 21.9734 174.24 21.9951 174.24 22.0138C174.318 22.1567 174.24 22.3028 174.24 22.4426C174.256 22.7378 174.646 22.5917 174.646 22.9056C174.636 23.1697 174.532 23.2878 174.006 23.5799C172.825 24.2418 168.705 26.2989 168.263 26.3641C168.25 26.3517 168.239 26.3299 168.224 26.3144C168.479 25.5469 168.934 25.3449 170.279 24.7576C171.363 24.276 171.962 23.0516 172.862 22.2934C173.122 22.0666 173.345 21.9454 173.491 21.8708ZM179.197 23.6117C179.202 23.6234 179.224 23.6445 179.233 23.6586C179.135 23.7617 179.015 23.8438 178.9 23.9235C177.557 24.8448 177.086 25.0206 176.097 25.2949C174.106 25.8412 170.402 26.4366 170.059 26.3569C170.251 26.242 170.806 26.0498 171.711 25.7755C172.982 25.391 174.291 25.1425 175.566 24.7651C176.661 24.4416 177.732 24.0173 178.84 23.6961C178.888 23.6773 178.955 23.6633 179.01 23.6469C179.061 23.6328 179.135 23.614 179.197 23.6117ZM198.125 12.6094C198.229 12.5943 198.389 12.6069 198.5 12.6069C198.154 13.059 197.556 13.2072 197.175 13.6241C197.314 14.2294 196.648 14.3425 196.374 14.6991C196.542 14.8347 196.755 14.782 196.944 14.8272C196.912 14.9955 196.898 15.0583 195.142 15.8394C194.924 15.9374 194.7 16.0253 194.495 16.1509C194.511 16.1735 194.519 16.2086 194.53 16.2363C195.461 16.4322 195.461 16.4322 195.528 16.495C195.461 16.5603 195.35 16.6306 195.262 16.6733C194.011 17.2685 192.603 17.4268 191.315 17.9618C189.263 18.8258 187.446 20.1369 185.322 20.8602C184.444 21.1591 183.507 20.9607 182.632 21.2018C180.434 21.8021 180.434 21.8021 180.335 21.7619C180.008 21.6213 180.08 20.7573 180.854 20.3052C181.07 20.1745 181.95 19.8003 185.394 18.768C186.655 18.3862 187.076 18.2556 187.446 18.0396C187.462 17.9969 187.478 17.9392 187.478 17.899C187.055 17.7357 186.661 17.8312 185.381 18.1979C185.091 18.2782 182.517 19.0041 182.267 18.871C182.28 18.8584 183.467 17.5951 185.822 17.0902C186.506 16.9496 188.098 16.6055 188.67 16.1509C188.273 16.2086 187.904 16.3819 187.491 16.3191C188.247 15.857 195.994 13.1117 198.125 12.6094ZM181.068 19.1535C181.018 19.2122 180.997 19.2342 177.65 20.2563C176.638 20.5627 175.857 20.7921 175.627 20.7169C175.627 20.7169 175.244 20.4857 176.363 20.1444C177.339 19.8563 180.691 19.1994 180.721 19.192C180.829 19.1755 180.94 19.1461 181.068 19.1535Z" stroke="url(#paint0_linear)"/>
<defs>
<linearGradient id="paint0_linear" x1="293" y1="0.674805" x2="293" y2="584.189" gradientUnits="userSpaceOnUse">
<stop stop-color="#F2C94C"/>
<stop offset="1" stop-color="white"/>
</linearGradient>
</defs>
</svg>
